<svg width="44" height="44" viewBox="0 0 44 44" fill="none" xmlns="http://www.w3.org/2000/svg">
<path d="M17.2219 31.1695C16.9469 31.1695 16.6719 31.0835 16.4313 30.9203C16.0016 30.6195 15.7781 30.0953 15.8641 29.5796L16.6547 24.6296L13.2344 21.1492C12.8734 20.7796 12.7445 20.2382 12.9078 19.7484C13.0711 19.2585 13.4922 18.8976 13.9992 18.8203L18.657 18.0984L20.7367 13.6296C20.9602 13.1484 21.4414 12.839 21.9742 12.8304H21.9828C22.5156 12.8304 22.9969 13.1398 23.2289 13.6211L25.343 18.0726L30.0008 18.7687C30.5078 18.846 30.9375 19.1984 31.1008 19.6882C31.2641 20.1781 31.1438 20.7195 30.7828 21.089L27.3797 24.5953L28.2047 29.5367C28.2906 30.0523 28.0758 30.5765 27.6461 30.8859C27.2164 31.1867 26.6492 31.221 26.1852 30.9718L22.0258 28.6945L17.8836 30.9976C17.6774 31.1093 17.4453 31.1695 17.2219 31.1695ZM17.0672 21.1234L19.0953 23.1859C19.4047 23.4953 19.5422 23.9335 19.4734 24.3718L19.018 27.2164L21.3469 25.9187C21.7594 25.6867 22.2578 25.6867 22.6789 25.9101L25.025 27.1906L24.5523 24.3546C24.4836 23.925 24.6211 23.4867 24.9219 23.1687L26.9414 21.089L24.2 20.6851C23.7445 20.6164 23.3578 20.3242 23.1602 19.9117L21.9914 17.4367L20.8398 19.9203C20.6508 20.3328 20.2555 20.625 19.8086 20.7023L17.0672 21.1234Z" fill="white"/>
<path d="M22 9.16953C21.2437 9.16953 20.625 8.55078 20.625 7.79453V1.375C20.625 0.61875 21.2437 0 22 0C22.7562 0 23.375 0.61875 23.375 1.375V7.79453C23.375 8.55078 22.7562 9.16953 22 9.16953Z" fill="white"/>
<path d="M42.625 20.625H40.2789C39.6086 11.6102 32.3898 4.39141 23.375 3.72109V1.375C23.375 0.61875 22.7563 0 22 0C21.2437 0 20.625 0.61875 20.625 1.375V3.72109C11.6102 4.39141 4.39141 11.6102 3.72109 20.625H1.375C0.61875 20.625 0 21.2437 0 22C0 22.7563 0.61875 23.375 1.375 23.375H3.72109C4.39141 32.3898 11.6102 39.6086 20.625 40.2789V42.625C20.625 43.3812 21.2437 44 22 44C22.7563 44 23.375 43.3812 23.375 42.625V40.2789C32.3898 39.6086 39.6086 32.3898 40.2789 23.375H42.625C43.3812 23.375 44 22.7563 44 22C44 21.2437 43.3812 20.625 42.625 20.625ZM23.375 37.5203V36.2055C23.375 35.4492 22.7563 34.8305 22 34.8305C21.2437 34.8305 20.625 35.4492 20.625 36.2055V37.5203C13.1313 36.8672 7.13281 30.8687 6.47969 23.375H7.79453C8.55078 23.375 9.16953 22.7563 9.16953 22C9.16953 21.2437 8.55078 20.625 7.79453 20.625H6.47969C7.13281 13.1313 13.1313 7.13281 20.625 6.47969V7.79453C20.625 8.55078 21.2437 9.16953 22 9.16953C22.7563 9.16953 23.375 8.55078 23.375 7.79453V6.47969C30.8687 7.13281 36.8672 13.1313 37.5203 20.625H36.2055C35.4492 20.625 34.8305 21.2437 34.8305 22C34.8305 22.7563 35.4492 23.375 36.2055 23.375H37.5203C36.8672 30.8687 30.8687 36.8672 23.375 37.5203Z" fill="white"/>
</svg>
