<svg width="59" height="53" viewBox="0 0 59 53" fill="none" xmlns="http://www.w3.org/2000/svg">
<path d="M53.8482 0H5.94595C3.11949 0 0.837891 2.072 0.837891 4.63881V41.9555C0.837891 44.5223 3.11949 46.5943 5.94595 46.5943H7.64863V51.2331C7.64863 52.0887 8.40916 52.7794 9.35132 52.7794H16.1621C17.1042 52.7794 17.8647 52.0887 17.8647 51.2331V46.5943H41.9294V51.2331C41.9294 52.0887 42.6899 52.7794 43.632 52.7794H50.4428C51.3849 52.7794 52.1455 52.0887 52.1455 51.2331V46.5943H53.8482C56.6746 46.5943 58.9562 44.5223 58.9562 41.9555V4.63881C58.9562 2.072 56.6746 0 53.8482 0ZM4.24326 15.5658H11.054V18.6583H4.24326V15.5658ZM12.7567 12.4733H11.8145C11.3945 12.4733 11.0427 12.164 11.0427 11.7723V9.9786C11.0427 9.59719 11.3832 9.27763 11.8145 9.27763H47.9682C48.3882 9.27763 48.7401 9.58688 48.7401 9.9786V36.626C48.7401 37.0074 48.3996 37.327 47.9682 37.327H11.8259C11.4059 37.327 11.054 37.0177 11.054 36.626V34.822C11.054 34.4406 11.3945 34.1211 11.8259 34.1211H12.768C13.7102 34.1211 14.4707 33.4304 14.4707 32.5748V26.3897C14.4707 25.5341 13.7102 24.8434 12.768 24.8434H11.8259C11.4059 24.8434 11.054 24.5342 11.054 24.1424V22.4415C11.054 22.0601 11.3945 21.7406 11.8259 21.7406H12.768C13.7102 21.7406 14.4707 21.0499 14.4707 20.1943V14.0092C14.4594 13.1639 13.6988 12.4733 12.7567 12.4733ZM4.24326 21.7509H7.64863V24.8434H4.24326V21.7509ZM4.24326 27.936H11.054V31.0285H4.24326V27.936ZM14.4594 49.6869H11.054V46.5943H14.4594V49.6869ZM48.7401 49.6869H45.3347V46.5943H48.7401V49.6869ZM55.5508 41.9555C55.5508 42.8111 54.7903 43.5018 53.8482 43.5018H5.94595C5.00379 43.5018 4.24326 42.8111 4.24326 41.9555V34.9457C4.24326 34.4922 4.65191 34.1211 5.15136 34.1211H6.74053C7.23999 34.1211 7.64863 34.4922 7.64863 34.9457V38.8629C7.64863 39.7186 8.40916 40.4092 9.35132 40.4092H50.4428C51.3849 40.4092 52.1455 39.7186 52.1455 38.8629V7.73136C52.1455 6.87575 51.3849 6.18508 50.4428 6.18508H9.35132C8.40916 6.18508 7.64863 6.87575 7.64863 7.73136V11.896C7.64863 12.2155 7.36485 12.4733 7.01296 12.4733H4.87893C4.52704 12.4733 4.24326 12.2155 4.24326 11.896V4.63881C4.24326 3.78321 5.00379 3.09254 5.94595 3.09254H53.8482C54.7903 3.09254 55.5508 3.78321 55.5508 4.63881V41.9555Z" fill="white"/>
<path d="M30.1921 32.5747C25.1181 32.5747 20.9976 28.8328 20.9976 24.2249C20.9976 19.617 25.1181 15.875 30.1921 15.875C35.2661 15.875 39.3866 19.617 39.3866 24.2249C39.3866 28.8328 35.2547 32.5747 30.1921 32.5747ZM30.1921 18.9675C27.0024 18.9675 24.4029 21.3282 24.4029 24.2249C24.4029 27.1215 27.0024 29.4822 30.1921 29.4822C33.3818 29.4822 35.9812 27.1215 35.9812 24.2249C35.9812 21.3282 33.3818 18.9675 30.1921 18.9675Z" fill="white"/>
</svg>
