<svg width="59" height="39" viewBox="0 0 59 39" fill="none" xmlns="http://www.w3.org/2000/svg">
<path d="M58.4471 2.64511C58.1246 2.41654 57.6984 2.3594 57.3182 2.49654L47.2968 6.10803C46.0527 6.55375 45.0621 7.45662 44.5092 8.64522C44.4055 8.87379 44.3364 9.10237 44.2673 9.33094C42.551 8.85093 39.3487 7.83377 36.1695 6.21089C31.3661 3.7537 27.703 4.96515 24.5584 7.35376C22.9688 7.38805 20.7686 7.57091 18.6031 7.7652C17.2208 7.89092 15.9192 7.99377 14.8709 8.06235C14.8479 7.43377 14.6982 6.80518 14.4217 6.22232C13.8688 5.03373 12.8782 4.13085 11.6341 3.68513L1.61265 0.0736438C1.23253 -0.0635013 0.817845 -0.00635749 0.483795 0.222218C0.195822 0.427935 0 0.805084 0 1.20509V25.5826C0 26.2569 0.552909 26.8055 1.23253 26.8055H4.82644C6.35845 26.8055 7.77528 26.0855 8.68528 24.9426C9.16907 25.3083 9.75654 25.7426 10.3555 26.1998C11.7839 27.2741 13.362 28.4398 14.0531 29.0113C18.6261 32.817 24.1322 36.92 25.2265 37.6285C26.2517 38.2914 28.0947 39 29.5 39C30.0529 39 31.4352 39 32.4028 38.1886C33.4049 38.5771 34.4762 38.5543 35.4783 38.12C36.4805 37.6857 37.2868 36.8628 37.7591 35.8571C38.7151 36.0514 39.821 35.9142 40.8231 35.4114C41.7561 34.9428 42.4473 34.2456 42.8159 33.4228C43.7029 33.5028 44.6474 33.217 45.4998 32.577C46.7093 31.6627 47.2622 30.3027 47.1125 28.9656L50.2341 27.2512C51.1441 28.4741 52.5955 29.2627 54.1736 29.2627H57.7675C58.4471 29.2627 59 28.7141 59 28.0398V3.63942C58.977 3.23941 58.7811 2.87369 58.4471 2.64511ZM7.1187 22.7826C6.76162 23.7312 5.8401 24.3598 4.81492 24.3598H2.45353V2.94226L10.8278 5.95946C11.4498 6.18803 11.9451 6.63375 12.2216 7.22805C12.498 7.82234 12.5211 8.48521 12.2907 9.10237L7.1187 22.7826ZM43.9908 30.6227C43.5761 30.9427 42.9887 31.1142 42.7353 30.8627C42.7237 30.8513 42.7007 30.8513 42.6892 30.8399C42.6661 30.817 42.6546 30.7942 42.6316 30.7713C41.7561 30.0856 37.8167 26.0855 35.3862 23.5712C34.9139 23.0797 34.1421 23.0683 33.6468 23.5369C33.1515 24.0055 33.14 24.7712 33.6123 25.2626C34.1882 25.8569 38.7612 30.5884 40.6043 32.2456C40.466 32.7828 39.9707 33.1142 39.7173 33.2399C38.934 33.6285 38.1046 33.5713 37.8052 33.2856C37.7936 33.2742 37.7821 33.2742 37.7706 33.2742C37.7591 33.2628 37.7476 33.2399 37.736 33.2285C36.2616 32.0627 32.564 28.1655 31.7347 27.2627C31.2739 26.7712 30.5021 26.7369 29.9953 27.1941C29.5 27.6512 29.4654 28.417 29.9262 28.9198C29.9723 28.9656 33.5892 32.8399 35.6281 34.6456C35.4323 35.2171 35.0176 35.6857 34.4992 35.9142C34.1191 36.0857 33.5086 36.1771 32.8175 35.6628C31.0551 34.1771 27.5072 30.4399 26.8161 29.697C26.3553 29.2056 25.572 29.1827 25.0767 29.6398C24.5814 30.097 24.5584 30.8742 25.0191 31.3656C25.8485 32.2456 28.2905 34.8056 30.1451 36.5428C29.9377 36.5657 29.7189 36.5771 29.5115 36.5771C28.6937 36.5771 27.2999 36.0628 26.5972 35.6057C25.7333 35.0457 20.3309 31.0342 15.6542 27.1598C14.9516 26.5769 13.3389 25.3655 11.8645 24.2683C11.0697 23.674 10.344 23.1369 9.80262 22.7254L14.3987 10.5538C15.5966 10.4967 17.1863 10.371 18.868 10.2224C19.8241 10.1424 20.7802 10.0624 21.6902 9.98238C20.2848 11.411 18.2114 13.971 18.4764 16.3596C18.6031 17.4454 19.2021 18.3597 20.2157 18.9882C22.22 20.234 25.9406 19.194 27.7261 16.9996C28.878 16.8396 29.6613 16.5425 30.5137 16.1196C31.9535 17.4682 33.8887 19.0454 35.916 20.7026C39.4408 23.594 43.4494 26.8627 44.5092 28.6913C45.0736 29.6856 44.2558 30.4284 43.9908 30.6227ZM46.0988 26.7027C44.4631 24.5312 40.9153 21.6283 37.4596 18.794C35.1558 16.9082 32.9787 15.1253 31.5849 13.7424C31.2048 13.3653 30.6173 13.2739 30.1335 13.5253C28.878 14.1882 28.3135 14.4625 26.9082 14.611C26.5281 14.6453 26.1941 14.851 25.9867 15.171C25.0191 16.6911 22.3467 17.4111 21.4943 16.8854C21.0105 16.5882 20.9184 16.2796 20.8954 16.0511C20.7802 15.011 21.8399 13.2167 23.5908 11.4795C27.9334 7.1709 31.0435 6.32518 35.0636 8.38235C38.8879 10.3367 42.6546 11.4453 44.2327 11.8567C44.2788 12.0396 44.3134 12.2224 44.3825 12.4053L49.1513 25.0341L46.0988 26.7027ZM56.5234 26.8055H54.162C53.1484 26.8055 52.2153 26.1655 51.8583 25.2283L46.6863 11.5595C46.4559 10.9424 46.4789 10.2795 46.7554 9.68523C47.0318 9.09094 47.5271 8.63379 48.1492 8.41664L56.5119 5.39945L56.5234 26.8055Z" fill="white"/>
</svg>
