<svg width="40" height="42" viewBox="0 0 40 42" fill="none" xmlns="http://www.w3.org/2000/svg">
<path d="M28.6097 27.9884V39.8688H2V2H28.6097V3.49467" stroke="white" stroke-width="2.5" stroke-linecap="round" stroke-linejoin="round"/>
<path d="M29.1003 20.9967C33.9344 20.9967 37.8532 17.0779 37.8532 12.2438C37.8532 7.4097 33.9344 3.49091 29.1003 3.49091C24.2662 3.49091 20.3474 7.4097 20.3474 12.2438C20.3474 17.0779 24.2662 20.9967 29.1003 20.9967Z" stroke="white" stroke-width="2.5" stroke-linejoin="round"/>
<path d="M23.7255 19.2303V31.5651L29.1003 27.0358" stroke="white" stroke-width="2.5" stroke-linecap="round" stroke-linejoin="round"/>
<path d="M34.4751 19.2303V31.5651L29.1003 27.0358" stroke="white" stroke-width="2.5" stroke-linecap="round" stroke-linejoin="round"/>
<path d="M5.71027 7.85791H21.5289" stroke="white" stroke-width="2.5" stroke-linecap="round" stroke-linejoin="round"/>
<path d="M5.71027 34.1468H19.5058" stroke="white" stroke-width="2.5" stroke-linecap="round" stroke-linejoin="round"/>
<path d="M5.71027 29.7647H19.5058" stroke="white" stroke-width="2.5" stroke-linecap="round" stroke-linejoin="round"/>
<path d="M5.71027 25.3826H19.5058" stroke="white" stroke-width="2.5" stroke-linecap="round" stroke-linejoin="round"/>
<path d="M5.71027 21.0004H19.5058" stroke="white" stroke-width="2.5" stroke-linecap="round" stroke-linejoin="round"/>
<path d="M5.71027 16.6183H21.5289" stroke="white" stroke-width="2.5" stroke-linecap="round" stroke-linejoin="round"/>
<path d="M5.71027 12.24H20.3475" stroke="white" stroke-width="2.5" stroke-linecap="round" stroke-linejoin="round"/>
<path d="M29.1003 16.8146C31.6977 16.8146 33.8033 14.709 33.8033 12.1117C33.8033 9.51433 31.6977 7.40875 29.1003 7.40875C26.503 7.40875 24.3974 9.51433 24.3974 12.1117C24.3974 14.709 26.503 16.8146 29.1003 16.8146Z" stroke="white" stroke-width="2.5" stroke-linecap="round" stroke-linejoin="round"/>
</svg>
