<svg width="36" height="35" viewBox="0 0 36 35" fill="none" xmlns="http://www.w3.org/2000/svg">
<path d="M16.1829 6.82401V17.0235L11.3453 21.9559C10.8265 22.4849 10.8265 23.3329 11.3453 23.8542C11.6048 24.1187 11.9405 24.251 12.2762 24.251C12.6119 24.251 12.9477 24.1187 13.2071 23.8542L18.4337 18.525C18.6779 18.276 18.8229 17.9337 18.8229 17.5758V6.82401C18.8229 6.08492 18.2354 5.47809 17.5029 5.47809C16.7704 5.47809 16.1829 6.07714 16.1829 6.82401Z" fill="white"/>
<path d="M35.8769 23.3241C35.5717 22.6628 34.801 22.375 34.1525 22.6862L32.6265 23.4175C33.3818 21.4492 33.771 19.3486 33.771 17.2169C33.771 12.619 32.016 8.29336 28.8266 5.04137C25.6373 1.78938 21.3949 0 16.8855 0C12.3761 0 8.13372 1.78938 4.94433 5.04137C1.75493 8.29336 0 12.619 0 17.2169C0 21.8148 1.75493 26.1404 4.94433 29.3924C8.13372 32.6444 12.3761 34.4338 16.8855 34.4338C19.9757 34.4338 22.9972 33.578 25.622 31.952C26.2477 31.5708 26.446 30.7383 26.0645 30.1082C25.6907 29.4702 24.8742 29.268 24.2562 29.6569C22.0435 31.0262 19.495 31.7497 16.8855 31.7497C9.02645 31.7497 2.64003 25.2302 2.64003 17.2247C2.64003 9.21917 9.02645 2.69184 16.8855 2.69184C24.7445 2.69184 31.131 9.20361 31.131 17.2169C31.131 18.9596 30.8181 20.6712 30.223 22.2894L29.9025 20.36C29.7804 19.6364 29.1166 19.1541 28.407 19.2786C27.6974 19.403 27.2243 20.0799 27.3464 20.8034L28.2697 26.3816C28.3231 26.6928 28.4757 26.9573 28.6893 27.1518C28.9411 27.4475 29.2997 27.6186 29.6736 27.6186C29.8567 27.6186 30.0475 27.5797 30.223 27.4941L35.2512 25.0901C35.8998 24.7712 36.1821 23.9854 35.8769 23.3241Z" fill="white"/>
</svg>
