<svg width="36" height="36" viewBox="0 0 36 36" fill="none" xmlns="http://www.w3.org/2000/svg">
<path d="M33 3.6H30V2.4C30 1.76348 29.7472 1.15303 29.2971 0.702944C28.847 0.252857 28.2365 0 27.6 0C26.9635 0 26.353 0.252857 25.903 0.702944C25.4529 1.15303 25.2 1.76348 25.2 2.4V3.6H20.4V2.4C20.4 1.76348 20.1472 1.15303 19.6971 0.702944C19.247 0.252857 18.6365 0 18 0C17.3635 0 16.753 0.252857 16.303 0.702944C15.8529 1.15303 15.6 1.76348 15.6 2.4V3.6H10.8V2.4C10.8 1.76348 10.5471 1.15303 10.0971 0.702944C9.64697 0.252857 9.03652 0 8.4 0C7.76348 0 7.15303 0.252857 6.70295 0.702944C6.25286 1.15303 6 1.76348 6 2.4V3.6H3C2.20435 3.6 1.44129 3.91607 0.87868 4.47868C0.316071 5.04129 0 5.80435 0 6.6V30.6C0 31.3957 0.316071 32.1587 0.87868 32.7213C1.44129 33.2839 2.20435 33.6 3 33.6H19.8C19.9591 33.6 20.1118 33.5368 20.2243 33.4243C20.3368 33.3118 20.4 33.1591 20.4 33C20.4 32.8409 20.3368 32.6883 20.2243 32.5757C20.1118 32.4632 19.9591 32.4 19.8 32.4H3C2.52305 32.3986 2.06604 32.2085 1.72878 31.8712C1.39152 31.534 1.20142 31.077 1.2 30.6V12H34.8V22.2C34.8 22.3591 34.8632 22.5118 34.9757 22.6243C35.0883 22.7368 35.2409 22.8 35.4 22.8C35.5591 22.8 35.7118 22.7368 35.8243 22.6243C35.9368 22.5118 36 22.3591 36 22.2V6.6C36 5.80435 35.6839 5.04129 35.1213 4.47868C34.5587 3.91607 33.7957 3.6 33 3.6ZM26.4 2.4C26.4 2.08174 26.5264 1.77652 26.7515 1.55147C26.9765 1.32643 27.2818 1.2 27.6 1.2C27.9183 1.2 28.2235 1.32643 28.4485 1.55147C28.6736 1.77652 28.8 2.08174 28.8 2.4V6C28.8 6.31826 28.6736 6.62349 28.4485 6.84853C28.2235 7.07357 27.9183 7.2 27.6 7.2C27.2818 7.2 26.9765 7.07357 26.7515 6.84853C26.5264 6.62349 26.4 6.31826 26.4 6V2.4ZM16.8 2.4C16.8 2.08174 16.9264 1.77652 17.1515 1.55147C17.3765 1.32643 17.6817 1.2 18 1.2C18.3183 1.2 18.6235 1.32643 18.8485 1.55147C19.0736 1.77652 19.2 2.08174 19.2 2.4V6C19.2 6.31826 19.0736 6.62349 18.8485 6.84853C18.6235 7.07357 18.3183 7.2 18 7.2C17.6817 7.2 17.3765 7.07357 17.1515 6.84853C16.9264 6.62349 16.8 6.31826 16.8 6V2.4ZM7.2 2.4C7.2 2.08174 7.32643 1.77652 7.55148 1.55147C7.77652 1.32643 8.08174 1.2 8.4 1.2C8.71826 1.2 9.02349 1.32643 9.24853 1.55147C9.47358 1.77652 9.6 2.08174 9.6 2.4V6C9.6 6.31826 9.47358 6.62349 9.24853 6.84853C9.02349 7.07357 8.71826 7.2 8.4 7.2C8.08174 7.2 7.77652 7.07357 7.55148 6.84853C7.32643 6.62349 7.2 6.31826 7.2 6V2.4ZM34.8 10.8H1.2V6.6C1.20142 6.12305 1.39152 5.66604 1.72878 5.32878C2.06604 4.99153 2.52305 4.80143 3 4.8H6V6C6 6.63652 6.25286 7.24697 6.70295 7.69706C7.15303 8.14715 7.76348 8.4 8.4 8.4C9.03652 8.4 9.64697 8.14715 10.0971 7.69706C10.5471 7.24697 10.8 6.63652 10.8 6V4.8H15.6V6C15.6 6.63652 15.8529 7.24697 16.303 7.69706C16.753 8.14715 17.3635 8.4 18 8.4C18.6365 8.4 19.247 8.14715 19.6971 7.69706C20.1472 7.24697 20.4 6.63652 20.4 6V4.8H25.2V6C25.2 6.63652 25.4529 7.24697 25.903 7.69706C26.353 8.14715 26.9635 8.4 27.6 8.4C28.2365 8.4 28.847 8.14715 29.2971 7.69706C29.7472 7.24697 30 6.63652 30 6V4.8H33C33.477 4.80143 33.934 4.99153 34.2712 5.32878C34.6085 5.66604 34.7986 6.12305 34.8 6.6V10.8Z" fill="#C4C4C4"/>
<path d="M16.8 16.2001C16.8 15.8818 16.6736 15.5766 16.4485 15.3515C16.2235 15.1265 15.9183 15.0001 15.6 15.0001H13.2C12.8817 15.0001 12.5765 15.1265 12.3515 15.3515C12.1264 15.5766 12 15.8818 12 16.2001V18.0001C12 18.3183 12.1264 18.6235 12.3515 18.8486C12.5765 19.0736 12.8817 19.2001 13.2 19.2001H15.6C15.9183 19.2001 16.2235 19.0736 16.4485 18.8486C16.6736 18.6235 16.8 18.3183 16.8 18.0001V16.2001ZM13.2 18.0001V16.2001H15.6V18.0001H13.2Z" fill="#C4C4C4"/>
<path d="M9.59981 16.2001C9.59981 15.8818 9.47338 15.5766 9.24833 15.3515C9.02329 15.1265 8.71807 15.0001 8.39981 15.0001H5.99981C5.68155 15.0001 5.37632 15.1265 5.15128 15.3515C4.92623 15.5766 4.7998 15.8818 4.7998 16.2001V18.0001C4.7998 18.3183 4.92623 18.6235 5.15128 18.8486C5.37632 19.0736 5.68155 19.2001 5.99981 19.2001H8.39981C8.71807 19.2001 9.02329 19.0736 9.24833 18.8486C9.47338 18.6235 9.59981 18.3183 9.59981 18.0001V16.2001ZM5.99981 18.0001V16.2001H8.39981V18.0001H5.99981Z" fill="#C4C4C4"/>
<path d="M29.9999 19.2001C30.3182 19.2001 30.6234 19.0736 30.8484 18.8486C31.0735 18.6235 31.1999 18.3183 31.1999 18.0001V16.2001C31.1999 15.8818 31.0735 15.5766 30.8484 15.3515C30.6234 15.1265 30.3182 15.0001 29.9999 15.0001H27.5999C27.2816 15.0001 26.9764 15.1265 26.7514 15.3515C26.5263 15.5766 26.3999 15.8818 26.3999 16.2001V18.0001C26.3999 18.3183 26.5263 18.6235 26.7514 18.8486C26.9764 19.0736 27.2816 19.2001 27.5999 19.2001H29.9999ZM27.5999 16.2001H29.9999V18.0001H27.5999V16.2001Z" fill="#C4C4C4"/>
<path d="M16.8 21.6C16.8 21.2817 16.6736 20.9765 16.4485 20.7514C16.2235 20.5264 15.9183 20.4 15.6 20.4H13.2C12.8817 20.4 12.5765 20.5264 12.3515 20.7514C12.1264 20.9765 12 21.2817 12 21.6V23.4C12 23.7182 12.1264 24.0235 12.3515 24.2485C12.5765 24.4735 12.8817 24.6 13.2 24.6H15.6C15.9183 24.6 16.2235 24.4735 16.4485 24.2485C16.6736 24.0235 16.8 23.7182 16.8 23.4V21.6ZM13.2 23.4V21.6H15.6V23.4H13.2Z" fill="#C4C4C4"/>
<path d="M9.59981 21.6C9.59981 21.2817 9.47338 20.9765 9.24833 20.7514C9.02329 20.5264 8.71807 20.4 8.39981 20.4H5.99981C5.68155 20.4 5.37632 20.5264 5.15128 20.7514C4.92623 20.9765 4.7998 21.2817 4.7998 21.6V23.4C4.7998 23.7182 4.92623 24.0235 5.15128 24.2485C5.37632 24.4735 5.68155 24.6 5.99981 24.6H8.39981C8.71807 24.6 9.02329 24.4735 9.24833 24.2485C9.47338 24.0235 9.59981 23.7182 9.59981 23.4V21.6ZM5.99981 23.4V21.6H8.39981V23.4H5.99981Z" fill="#C4C4C4"/>
<path d="M15.6 25.7999H13.2C12.8817 25.7999 12.5765 25.9264 12.3515 26.1514C12.1264 26.3764 12 26.6817 12 26.9999V28.7999C12 29.1182 12.1264 29.4234 12.3515 29.6485C12.5765 29.8735 12.8817 29.9999 13.2 29.9999H15.6C15.9183 29.9999 16.2235 29.8735 16.4485 29.6485C16.6736 29.4234 16.8 29.1182 16.8 28.7999V26.9999C16.8 26.6817 16.6736 26.3764 16.4485 26.1514C16.2235 25.9264 15.9183 25.7999 15.6 25.7999ZM13.2 28.7999V26.9999H15.6V28.7999H13.2Z" fill="#C4C4C4"/>
<path d="M20.4002 19.2001H22.8002C23.1185 19.2001 23.4237 19.0736 23.6487 18.8486C23.8738 18.6235 24.0002 18.3183 24.0002 18.0001V16.2001C24.0002 15.8818 23.8738 15.5766 23.6487 15.3515C23.4237 15.1265 23.1185 15.0001 22.8002 15.0001H20.4002C20.0819 15.0001 19.7767 15.1265 19.5517 15.3515C19.3266 15.5766 19.2002 15.8818 19.2002 16.2001V18.0001C19.2002 18.3183 19.3266 18.6235 19.5517 18.8486C19.7767 19.0736 20.0819 19.2001 20.4002 19.2001ZM20.4002 16.2001H22.8002V18.0001H20.4002V16.2001Z" fill="#C4C4C4"/>
<path d="M19.2002 23.4C19.2002 23.7182 19.3266 24.0235 19.5517 24.2485C19.7767 24.4735 20.0819 24.6 20.4002 24.6C20.5593 24.6 20.7119 24.5368 20.8245 24.4242C20.937 24.3117 21.0002 24.1591 21.0002 24C21.0002 23.8408 20.937 23.6882 20.8245 23.5757C20.7119 23.4632 20.5593 23.4 20.4002 23.4V21.6H22.8002C22.9593 21.6 23.1119 21.5368 23.2245 21.4242C23.337 21.3117 23.4002 21.1591 23.4002 21C23.4002 20.8408 23.337 20.6882 23.2245 20.5757C23.1119 20.4632 22.9593 20.4 22.8002 20.4H20.4002C20.0819 20.4 19.7767 20.5264 19.5517 20.7514C19.3266 20.9765 19.2002 21.2817 19.2002 21.6V23.4Z" fill="#C4C4C4"/>
<path d="M8.39981 25.7999H5.99981C5.68155 25.7999 5.37632 25.9264 5.15128 26.1514C4.92623 26.3764 4.7998 26.6817 4.7998 26.9999V28.7999C4.7998 29.1182 4.92623 29.4234 5.15128 29.6485C5.37632 29.8735 5.68155 29.9999 5.99981 29.9999H8.39981C8.71807 29.9999 9.02329 29.8735 9.24833 29.6485C9.47338 29.4234 9.59981 29.1182 9.59981 28.7999V26.9999C9.59981 26.6817 9.47338 26.3764 9.24833 26.1514C9.02329 25.9264 8.71807 25.7999 8.39981 25.7999ZM5.99981 28.7999V26.9999H8.39981V28.7999H5.99981Z" fill="#C4C4C4"/>
<path d="M28.1999 20.4C26.6572 20.4 25.1492 20.8574 23.8665 21.7145C22.5838 22.5716 21.584 23.7898 20.9936 25.215C20.4033 26.6403 20.2488 28.2086 20.5498 29.7217C20.8507 31.2347 21.5936 32.6246 22.6845 33.7154C23.7753 34.8063 25.1652 35.5491 26.6782 35.8501C28.1913 36.1511 29.7596 35.9966 31.1848 35.4062C32.6101 34.8159 33.8283 33.8161 34.6854 32.5334C35.5424 31.2507 35.9999 29.7427 35.9999 28.2C35.9975 26.132 35.175 24.1494 33.7127 22.6872C32.2504 21.2249 30.2679 20.4023 28.1999 20.4ZM28.1999 34.8C26.8946 34.8 25.6185 34.4129 24.5331 33.6877C23.4478 32.9625 22.6018 31.9317 22.1023 30.7257C21.6028 29.5197 21.4721 28.1926 21.7267 26.9124C21.9814 25.6321 22.61 24.4561 23.533 23.5331C24.456 22.61 25.632 21.9814 26.9123 21.7268C28.1926 21.4721 29.5196 21.6028 30.7256 22.1024C31.9316 22.6019 32.9624 23.4478 33.6876 24.5332C34.4128 25.6186 34.7999 26.8946 34.7999 28.2C34.7978 29.9498 34.1018 31.6273 32.8645 32.8646C31.6272 34.1019 29.9497 34.7979 28.1999 34.8Z" fill="#C4C4C4"/>
<path d="M31.6669 25.6848L27.0001 30.3516L24.8791 28.23C24.766 28.1207 24.6144 28.0602 24.4571 28.0616C24.2998 28.0629 24.1493 28.126 24.038 28.2373C23.9268 28.3485 23.8637 28.499 23.8623 28.6563C23.861 28.8137 23.9214 28.9652 24.0307 29.0784L26.5759 31.6242C26.6884 31.7367 26.841 31.7999 27.0001 31.7999C27.1592 31.7999 27.3118 31.7367 27.4243 31.6242L32.5153 26.5332C32.6246 26.42 32.6851 26.2685 32.6837 26.1111C32.6824 25.9538 32.6193 25.8033 32.508 25.6921C32.3968 25.5809 32.2463 25.5177 32.089 25.5164C31.9317 25.515 31.7801 25.5755 31.6669 25.6848Z" fill="#C4C4C4"/>
</svg>
