<svg width="111" height="114" viewBox="0 0 111 114" fill="none" xmlns="http://www.w3.org/2000/svg">
<mask id="mask0" mask-type="alpha" maskUnits="userSpaceOnUse" x="0" y="0" width="111" height="114">
<rect width="111" height="114" fill="#C4C4C4"/>
</mask>
<g mask="url(#mask0)">
<path d="M46.0557 68.8462C48.5909 68.8462 50.6651 70.9231 50.6651 73.4615C50.6651 76 48.5909 78.0769 46.0557 78.0769C45.226 78.0769 42.276 78.0769 41.4464 78.0769C38.9112 78.0769 36.837 76 36.837 73.4615C36.837 70.9231 38.9112 68.8462 41.4464 68.8462H46.0557ZM117.962 68.8462C115.427 68.8462 113.353 70.9231 113.353 73.4615C113.353 76 115.427 78.0769 117.962 78.0769H122.571C125.107 78.0769 127.181 76 127.181 73.4615C127.181 70.9231 125.107 68.8462 122.571 68.8462C121.742 68.8462 118.792 68.8462 117.962 68.8462ZM131.79 73.2308V63.0769C131.79 57.9769 127.665 53.8462 122.571 53.8462H41.4464C36.353 53.8462 32.2276 57.9769 32.2276 63.0769V89.3846H55.2745V78.0769C55.2745 71.7077 60.437 66.5385 66.7979 66.5385H96.7589C103.12 66.5385 108.282 71.7077 108.282 78.0769V89.3846H136.399C138.935 89.3846 141.009 91.4615 141.009 94V110.385C141.009 112.923 138.935 115 136.399 115H117.962C115.427 115 113.353 112.923 113.353 110.385V98.6154H50.6651V110.385C50.6651 112.923 48.5909 115 46.0557 115H27.6182C25.0831 115 23.0089 112.923 23.0089 110.385V63.0769C23.0089 57.6308 25.3827 52.7154 29.1393 49.3462C26.7425 47.7538 24.9217 45.7923 23.585 43.3923C22.3405 41.1538 23.1471 38.3615 25.3827 37.1154C27.6182 35.8692 30.4069 36.6769 31.6514 38.9154C32.3889 40.2538 33.5182 41.3154 35.1085 42.1923L40.801 27.3077C43.0596 21.4 48.0839 17.1308 54.2374 15.8385C60.4831 14.5462 70.4393 13 82.4698 13C94.3389 13 103.903 14.5 109.849 15.7692C115.957 17.0615 120.958 21.3308 123.194 27.1692L128.955 42.0769C130.499 41.1769 131.652 40.0923 132.458 38.7538C133.772 36.5846 136.607 35.8692 138.796 37.1846C140.963 38.5 141.677 41.3385 140.364 43.5308C138.981 45.8154 137.137 47.7308 134.832 49.2769C138.635 52.6692 141.032 57.5846 141.032 63.0538V73.2077C141.032 75.7462 138.958 77.8231 136.423 77.8231C133.864 77.8462 131.79 75.7692 131.79 73.2308ZM44.0507 44.6154H120.036L114.597 30.4923C113.468 27.5846 110.979 25.4385 107.937 24.7923C102.428 23.6385 93.5323 22.2308 82.4698 22.2308C71.2229 22.2308 61.935 23.6615 56.1042 24.8846C53.0389 25.5308 50.5268 27.6538 49.3975 30.6077L44.0507 44.6154ZM131.79 105.769V98.6154H122.571V105.769H131.79ZM64.4932 89.3846H70.2549V85C70.2549 82.4615 72.3292 80.3846 74.8643 80.3846C77.3995 80.3846 79.4737 82.4615 79.4737 85V89.3846H84.0831V85C84.0831 82.4615 86.1573 80.3846 88.6925 80.3846C91.2276 80.3846 93.3018 82.4615 93.3018 85V89.3846H99.0635V78.0769C99.0635 76.8077 98.0264 75.7692 96.7589 75.7692H66.7979C65.5303 75.7692 64.4932 76.8077 64.4932 78.0769V89.3846ZM32.2276 98.6154V105.769H41.4464V98.6154H32.2276Z" fill="white" fill-opacity="0.2"/>
</g>
</svg>
