<svg width="33" height="33" viewBox="0 0 33 33" fill="none" xmlns="http://www.w3.org/2000/svg">
<path d="M16.5 30.0996C24.0821 30.0996 30.2285 23.9531 30.2285 16.3711C30.2285 8.78904 24.0821 2.64258 16.5 2.64258C8.91795 2.64258 2.77148 8.78904 2.77148 16.3711C2.77148 23.9531 8.91795 30.0996 16.5 30.0996Z" fill="white"/>
<path d="M16.5 0C7.38633 0 0 7.38633 0 16.5C0 25.6137 7.38633 33 16.5 33C25.6137 33 33 25.6137 33 16.5C33 7.38633 25.6137 0 16.5 0ZM24.75 25.7812C15.082 25.7812 7.21875 17.918 7.21875 8.25C7.21875 7.68281 7.68281 7.21875 8.25 7.21875H12.0592C12.6264 7.21875 13.0904 7.68281 13.0904 8.25C13.0904 10.0289 13.4771 11.7305 14.2441 13.2902C14.3666 13.5352 14.3795 13.8188 14.2893 14.083C14.199 14.3408 14.0121 14.5535 13.7607 14.676L12.2203 15.4172C13.5029 17.6473 15.3463 19.4971 17.5764 20.7732L18.3176 19.2393C18.44 18.9943 18.6527 18.801 18.9105 18.7107C19.1684 18.6205 19.452 18.6398 19.7033 18.7559C21.2695 19.5229 22.9646 19.9096 24.7436 19.9096C25.3107 19.9096 25.7748 20.3736 25.7748 20.9408V24.75C25.7812 25.3172 25.3172 25.7812 24.75 25.7812Z" fill="#0079D0"/>
</svg>
