<svg width="38" height="38" viewBox="0 0 38 38" fill="none" xmlns="http://www.w3.org/2000/svg">
<circle cx="19" cy="19" r="19" fill="#0079D0"/>
<path d="M23.6234 10.004L21.2249 10C18.5302 10 16.7888 11.8353 16.7888 14.6759V16.8318H14.3771C14.1688 16.8318 14 17.0054 14 17.2195V20.3431C14 20.5572 14.1689 20.7306 14.3771 20.7306H16.7888V28.6126C16.7888 28.8267 16.9575 29 17.1659 29H20.3124C20.5208 29 20.6896 28.8265 20.6896 28.6126V20.7306H23.5093C23.7177 20.7306 23.8865 20.5572 23.8865 20.3431L23.8876 17.2195C23.8876 17.1167 23.8478 17.0182 23.7772 16.9455C23.7066 16.8728 23.6103 16.8318 23.5103 16.8318H20.6896V15.0042C20.6896 14.1258 20.8933 13.6799 22.0073 13.6799L23.623 13.6793C23.8312 13.6793 24 13.5058 24 13.2919V10.3914C24 10.1777 23.8314 10.0043 23.6234 10.004Z" fill="white"/>
</svg>
