<svg width="136" height="99" viewBox="0 0 136 99" fill="none" xmlns="http://www.w3.org/2000/svg">
<path d="M101.244 83.9215H99.7994L99.7455 85.3655L99.3465 96.0485L82.9831 84.2063L82.5895 83.9215H82.1037H9.99999C5.30557 83.9215 1.5 80.1159 1.5 75.4215V10C1.5 5.30559 5.30558 1.5 10 1.5H126C130.694 1.5 134.5 5.30558 134.5 10V75.4215C134.5 80.1159 130.694 83.9215 126 83.9215H101.244Z" fill="white" stroke="#0079D0" stroke-width="3"/>
<path fill-rule="evenodd" clip-rule="evenodd" d="M52.314 16.4582C50.8886 18.0291 49.4632 18.291 47.8002 20.9091C47.0875 21.9564 46.8499 22.7419 46.3748 24.051C44.9494 29.0256 41.1484 24.3128 46.1373 19.3382C47.5626 18.0291 49.7007 16.72 52.314 16.4582ZM50.1759 11.4836C42.5738 13.0546 37.8224 20.6474 39.2479 28.2401C41.386 40.022 55.6399 44.7348 63.4795 34.262C71.0817 24.8365 63.0044 8.60363 50.1759 11.4836Z" fill="#0079D0"/>
<path fill-rule="evenodd" clip-rule="evenodd" d="M43.7614 44.2109C41.1482 46.0437 41.6233 46.0437 41.6233 52.3274C41.6233 55.7311 42.336 58.0874 43.7614 60.4438C46.6121 64.6329 52.3138 65.4184 58.4904 64.1093C57.7778 66.9893 53.7391 67.7748 50.8883 66.9893C48.7502 66.7274 48.5127 66.2038 47.3249 65.1565C46.137 64.3711 44.2365 64.3711 43.2863 65.4184C39.4852 69.0838 46.6121 74.8439 54.6894 73.7966C66.3302 72.4875 65.855 60.7056 65.855 51.5419C65.855 47.0909 66.5677 44.7346 62.5291 43.9491C58.2529 45.52 59.9159 47.0909 59.6783 53.1128C59.2032 57.0401 57.0651 58.3492 53.264 58.3492C42.5736 57.8256 52.7889 43.4255 43.7614 44.2109Z" fill="#0079D0"/>
<path fill-rule="evenodd" clip-rule="evenodd" d="M97.2137 74.0585C98.6391 73.273 114.081 59.9202 115.506 59.3965C115.506 61.7529 115.031 70.393 115.744 71.9639C116.694 73.7966 121.683 75.6294 121.683 69.0839C121.683 60.7057 121.683 52.0656 121.683 43.6874C120.733 44.211 109.33 54.6838 107.904 55.9929C106.479 57.302 104.816 59.1347 103.39 60.182C103.153 55.9929 103.866 50.7565 103.39 46.8292C102.915 43.1637 97.2137 42.9019 97.2137 47.8765C96.9762 56.5165 97.2137 65.4184 97.2137 74.0585Z" fill="#0079D0"/>
<path fill-rule="evenodd" clip-rule="evenodd" d="M99.5894 11.4836C97.2137 12.5309 97.2137 13.5782 97.2137 16.72V41.3311C98.164 40.8074 98.6392 40.2838 99.5894 39.4983L113.131 26.931C113.606 26.4073 114.794 25.36 115.506 24.8364C115.744 29.0255 115.031 34.0001 115.506 37.9274C115.744 42.1165 121.683 42.1165 121.683 37.142V12.269C121.683 11.2218 121.921 10.9599 121.445 11.2218C117.644 13.84 111.943 18.8145 107.904 22.2182C106.479 23.2655 104.816 24.8364 103.39 25.8837C103.39 22.7419 103.39 19.6 103.39 16.4581C103.39 13.0545 102.915 11.2218 99.5894 11.4836Z" fill="#0079D0"/>
<path fill-rule="evenodd" clip-rule="evenodd" d="M75.833 18.2909H87.4737C87.4737 21.1709 87.2361 37.9274 87.7113 39.2365C88.6615 42.1165 92.9377 41.8546 93.4128 38.451C93.888 37.1419 93.6504 20.1236 93.6504 17.2436C93.6504 10.6981 94.8383 11.4835 89.1366 11.4835C82.7224 11.4835 76.3081 11.4835 69.6563 11.4835C69.4187 13.5781 69.6563 29.2873 69.6563 33.4764C69.6563 35.571 69.1812 38.7128 70.6065 40.0219C71.7944 41.5928 74.4076 41.331 75.3578 40.0219C76.0706 38.451 75.833 35.3091 75.833 33.2146C75.833 28.24 75.833 23.2654 75.833 18.2909Z" fill="#0079D0"/>
<path fill-rule="evenodd" clip-rule="evenodd" d="M69.6561 44.2109C69.4185 48.6619 69.6561 54.6837 69.6561 59.1347C69.6561 62.2766 68.9434 71.4402 70.6063 73.0112C72.2694 74.3203 74.645 73.7966 75.3576 72.2257C76.3079 70.3929 75.3576 55.7311 75.8328 50.7564H87.4735C87.7111 55.2074 87.4735 61.2293 87.4735 65.6802C87.4735 67.7748 86.7608 71.1784 88.1862 72.7493C89.374 74.0585 91.2746 74.3203 92.7 72.7493C93.8878 71.4402 93.6503 68.5602 93.6503 66.2038C93.6503 61.7529 93.8878 46.5673 93.4127 44.2109H69.6561Z" fill="#0079D0"/>
<path fill-rule="evenodd" clip-rule="evenodd" d="M31.4079 55.4692C32.3581 53.6364 34.9713 50.7564 35.684 48.9237C37.347 46.0436 34.0211 42.64 31.4079 44.7346L24.7561 53.8983C24.2809 54.4219 23.8058 54.9455 23.5682 55.4692C23.3306 55.731 23.3306 55.731 23.0931 56.2546L22.3804 56.7783C22.3804 52.0655 23.3306 45.7819 20.7174 44.4728C19.7672 43.9491 18.3418 43.9491 17.3915 44.7346C15.491 46.0436 16.2037 49.7091 16.2037 52.5891V70.9166C16.6788 74.582 22.3804 75.3675 22.3804 69.6075C22.3804 66.2038 24.7561 65.6801 27.1317 61.2293L27.8444 62.2765C28.0819 62.5383 28.3195 62.8001 28.5571 63.062C29.0322 63.8474 29.2698 64.3711 29.7449 65.1565C30.6952 66.4656 31.4079 67.7748 32.1206 69.3456C32.8332 70.3929 34.0211 72.7493 34.7338 73.2729C36.8719 74.582 41.8607 72.7493 38.5349 67.7748C37.347 65.6801 31.883 56.7783 31.4079 55.4692Z" fill="#0079D0"/>
<path fill-rule="evenodd" clip-rule="evenodd" d="M27.1318 28.5017C28.3196 29.549 33.3085 39.2364 34.7339 40.2837C36.6344 41.8546 41.8608 40.2837 38.535 35.0472L31.1704 22.7417C32.3582 20.9089 34.2588 18.8144 35.6841 16.7198C37.5847 13.578 34.2588 10.1743 31.6456 11.7453C30.6953 12.5307 27.8445 16.7198 26.8942 18.0289L22.3805 24.3126C22.1429 21.6945 22.3805 17.7671 22.3805 15.149C22.3805 12.2689 20.0048 10.4362 17.6292 11.7453C15.4911 13.0544 16.2037 16.458 16.2037 19.3381V37.9273C16.4413 42.1164 22.1429 42.3782 22.3805 37.4036C22.3805 34.7854 22.1429 35.309 23.3307 33.7382C24.7562 31.9054 25.9439 30.3345 27.1318 28.5017Z" fill="#0079D0"/>
<path fill-rule="evenodd" clip-rule="evenodd" d="M52.3139 16.458C49.7006 16.7198 47.5625 18.029 46.1372 19.3381C41.1483 24.3126 44.9493 29.0254 46.3747 24.0508C46.8498 22.7417 47.0874 21.9562 47.8001 20.9089C49.4631 18.2908 50.8885 18.029 52.3139 16.458Z" fill="white"/>
</svg>
