<svg width="26" height="26" viewBox="0 0 26 26" fill="none" xmlns="http://www.w3.org/2000/svg">
<path d="M13 0C5.81953 0 0 5.81953 0 13C0 20.1805 5.81953 26 13 26C20.1805 26 26 20.1805 26 13C26 5.81953 20.1805 0 13 0ZM19.5 20.3125C11.8828 20.3125 5.6875 14.1172 5.6875 6.5C5.6875 6.05312 6.05312 5.6875 6.5 5.6875H9.50117C9.94805 5.6875 10.3137 6.05312 10.3137 6.5C10.3137 7.90156 10.6184 9.24219 11.2227 10.4711C11.3191 10.6641 11.3293 10.8875 11.2582 11.0957C11.1871 11.2988 11.0398 11.4664 10.8418 11.5629L9.62813 12.1469C10.6387 13.9039 12.091 15.3613 13.848 16.3668L14.432 15.1582C14.5285 14.9652 14.6961 14.8129 14.8992 14.7418C15.1023 14.6707 15.3258 14.6859 15.5238 14.7773C16.7578 15.3816 18.0934 15.6863 19.4949 15.6863C19.9418 15.6863 20.3074 16.052 20.3074 16.4988V19.5C20.3125 19.9469 19.9469 20.3125 19.5 20.3125Z" fill="#444446"/>
</svg>
