<svg width="29" height="29" viewBox="0 0 29 29" fill="none" xmlns="http://www.w3.org/2000/svg">
<circle cx="14.5" cy="14.5" r="14.5" fill="#13C05C"/>
<g clip-path="url(#clip0)">
<path d="M10.0689 21.7815C9.90398 21.9489 9.68128 22.041 9.44621 22.041C9.21114 22.041 8.98845 21.9489 8.82348 21.7815L3.87052 16.7476C3.35501 16.2246 3.35501 15.3793 3.87052 14.8562L4.49324 14.2244C5.00875 13.7013 5.8418 13.7013 6.35731 14.2244L9.45446 17.3669L17.8098 8.88497C18.3253 8.36191 19.1583 8.36191 19.6738 8.88497L20.2966 9.51683C20.8121 10.0399 20.8121 10.8852 20.2966 11.4082L10.0689 21.7815Z" fill="white" fill-opacity="0.5"/>
</g>
<g clip-path="url(#clip1)">
<path d="M13.864 21.4061C13.7041 21.5734 13.4881 21.6655 13.2602 21.6655C13.0322 21.6655 12.8163 21.5734 12.6563 21.4061L7.85343 16.3721C7.35354 15.8491 7.35354 15.0038 7.85343 14.4807L8.45729 13.8489C8.95717 13.3258 9.76498 13.3258 10.2649 13.8489L13.2682 16.9914L21.3703 8.50948C21.8702 7.98642 22.678 7.98642 23.1779 8.50948L23.7817 9.14134C24.2816 9.6644 24.2816 10.5097 23.7817 11.0327L13.864 21.4061Z" fill="white"/>
</g>
<defs>
<clipPath id="clip0">
<rect width="17.1973" height="13.5494" fill="white" transform="translate(3.47998 8.48877)"/>
</clipPath>
<clipPath id="clip1">
<rect width="16.6761" height="13.5494" fill="white" transform="translate(7.47852 8.11719)"/>
</clipPath>
</defs>
</svg>
