<svg width="79" height="106" viewBox="0 0 79 106" fill="none" xmlns="http://www.w3.org/2000/svg">
<path d="M104.548 45.3036L56.4341 1.55791L55.9786 1.14385C55.6681 0.854004 55.3161 0.626269 54.9435 0.439941C54.9227 0.439941 54.9021 0.419238 54.9021 0.419238C53.7013 -0.139746 52.3142 -0.139746 51.1134 0.419238C51.0927 0.419238 51.072 0.439941 51.072 0.439941C50.6993 0.626269 50.3681 0.854004 50.0368 1.14385L49.5813 1.55791L1.44658 45.3036C-0.354596 46.9392 -0.499518 49.7341 1.15673 51.5352C2.79228 53.3364 5.5872 53.4813 7.38837 51.8251L8.83759 50.5208V101.575C8.83759 104.018 10.8251 105.984 13.2474 105.984H35.3376H70.6778H92.7474C95.1903 105.984 97.1571 103.997 97.1571 101.575V50.5208L98.6063 51.8251C100.408 53.4606 103.202 53.3364 104.838 51.5352C106.474 49.7341 106.349 46.9392 104.548 45.3036ZM44.1571 97.1442V70.6442C44.1571 65.7583 48.1114 61.804 52.9974 61.804C57.8833 61.804 61.8376 65.7583 61.8376 70.6442V97.1442H44.1571ZM88.3376 97.1442H70.6778V70.6442C70.6778 60.8931 62.7692 52.9845 53.0181 52.9845C43.2669 52.9845 35.3583 60.8931 35.3583 70.6442V97.1442H17.6571V42.488L52.9974 10.3774L88.3376 42.5087V97.1442Z" fill="white" fill-opacity="0.2"/>
</svg>
