<svg width="71" height="62" viewBox="0 0 71 62" fill="none" xmlns="http://www.w3.org/2000/svg">
<path d="M13.8688 34.191C15.3937 34.191 16.6415 35.4331 16.6415 36.9512C16.6415 38.4693 15.3937 39.7114 13.8688 39.7114C13.3697 39.7114 11.5952 39.7114 11.0961 39.7114C9.5711 39.7114 8.32339 38.4693 8.32339 36.9512C8.32339 35.4331 9.5711 34.191 11.0961 34.191H13.8688ZM57.1227 34.191C55.5977 34.191 54.35 35.4331 54.35 36.9512C54.35 38.4693 55.5977 39.7114 57.1227 39.7114H59.8954C61.4204 39.7114 62.6681 38.4693 62.6681 36.9512C62.6681 35.4331 61.4204 34.191 59.8954 34.191C59.3963 34.191 57.6218 34.191 57.1227 34.191ZM65.4408 36.8132V30.7408C65.4408 27.6908 62.9592 25.2204 59.8954 25.2204H11.0961C8.03226 25.2204 5.5507 27.6908 5.5507 30.7408V46.4738H19.4141V39.7114C19.4141 35.9024 22.5196 32.8109 26.3459 32.8109H44.3683C48.1946 32.8109 51.3001 35.9024 51.3001 39.7114V46.4738H68.2134C69.7384 46.4738 70.9861 47.7159 70.9861 49.234V59.0327C70.9861 60.5508 69.7384 61.7929 68.2134 61.7929H57.1227C55.5977 61.7929 54.35 60.5508 54.35 59.0327V51.9942H16.6415V59.0327C16.6415 60.5508 15.3937 61.7929 13.8688 61.7929H2.77802C1.25304 61.7929 0.0053276 60.5508 0.0053276 59.0327V30.7408C0.0053276 27.4838 1.43326 24.5442 3.693 22.5293C2.2512 21.577 1.15599 20.4039 0.351914 18.9686C-0.396712 17.63 0.0885083 15.96 1.43326 15.2148C2.77802 14.4695 4.45549 14.9526 5.20412 16.2913C5.64775 17.0917 6.32706 17.7266 7.28363 18.251L10.7079 9.34941C12.0665 5.81638 15.0887 3.26321 18.7903 2.49036C22.5473 1.71751 28.5363 0.792847 35.773 0.792847C42.9127 0.792847 48.666 1.68991 52.2428 2.44896C55.9166 3.22181 58.9249 5.77497 60.2697 9.2666L63.7356 18.182C64.6644 17.6438 65.3576 16.9951 65.8428 16.1947C66.633 14.8974 68.3382 14.4695 69.6553 15.2562C70.9584 16.0428 71.3882 17.7404 70.598 19.0514C69.7662 20.4177 68.6571 21.5632 67.2707 22.4879C69.5582 24.5166 71 27.4562 71 30.727V36.7994C71 38.3175 69.7523 39.5596 68.2273 39.5596C66.6885 39.5734 65.4408 38.3313 65.4408 36.8132ZM12.6626 19.7001H58.3704L55.0986 11.2539C54.4193 9.51502 52.9221 8.23153 51.0921 7.84511C47.7787 7.15506 42.4275 6.31321 35.773 6.31321C29.0076 6.31321 23.4207 7.16887 19.9132 7.90031C18.0694 8.28674 16.5583 9.55642 15.879 11.3229L12.6626 19.7001ZM65.4408 56.2725V51.9942H59.8954V56.2725H65.4408ZM24.9595 46.4738H28.4254V43.8517C28.4254 42.3336 29.6731 41.0915 31.1981 41.0915C32.723 41.0915 33.9708 42.3336 33.9708 43.8517V46.4738H36.7434V43.8517C36.7434 42.3336 37.9911 41.0915 39.5161 41.0915C41.0411 41.0915 42.2888 42.3336 42.2888 43.8517V46.4738H45.7547V39.7114C45.7547 38.9524 45.1308 38.3313 44.3683 38.3313H26.3459C25.5834 38.3313 24.9595 38.9524 24.9595 39.7114V46.4738ZM5.5507 51.9942V56.2725H11.0961V51.9942H5.5507Z" fill="black" fill-opacity="0.25"/>
</svg>
