<svg width="20" height="20" viewBox="0 0 20 20" fill="none" xmlns="http://www.w3.org/2000/svg">
<circle cx="10" cy="10" r="10" fill="#E2E2E7"/>
<path d="M9.58 12.92C9.28667 12.92 9.05333 12.82 8.88 12.62C8.72 12.42 8.64 12.1533 8.64 11.82C8.64 11.14 8.76 10.5733 9 10.12C9.25333 9.66667 9.62 9.16667 10.1 8.62C10.46 8.20667 10.72 7.86667 10.88 7.6C11.0533 7.32 11.14 7.00667 11.14 6.66C11.14 6.28667 11 5.99333 10.72 5.78C10.4533 5.55333 10.0867 5.44 9.62 5.44C9.19333 5.44 8.79333 5.52667 8.42 5.7C8.06 5.87333 7.57333 6.14 6.96 6.5C6.57333 6.71333 6.25333 6.82 6 6.82C5.72 6.82 5.48 6.7 5.28 6.46C5.09333 6.20667 5 5.90667 5 5.56C5 5.32 5.04 5.12 5.12 4.96C5.21333 4.78667 5.35333 4.62667 5.54 4.48C6.12667 4.01333 6.8 3.65333 7.56 3.4C8.33333 3.13333 9.10667 3 9.88 3C10.7067 3 11.4467 3.14667 12.1 3.44C12.7667 3.73333 13.28 4.14 13.64 4.66C14.0133 5.16667 14.2 5.74 14.2 6.38C14.2 6.87333 14.1 7.32667 13.9 7.74C13.7133 8.14 13.4867 8.49333 13.22 8.8C12.9533 9.09333 12.5933 9.46 12.14 9.9C11.6333 10.3667 11.2533 10.76 11 11.08C10.7467 11.3867 10.5867 11.7333 10.52 12.12C10.4667 12.3733 10.3533 12.5733 10.18 12.72C10.02 12.8533 9.82 12.92 9.58 12.92ZM9.62 17.4C9.12667 17.4 8.72 17.24 8.4 16.92C8.08 16.5867 7.92 16.1733 7.92 15.68C7.92 15.1867 8.08 14.78 8.4 14.46C8.72 14.1267 9.12667 13.96 9.62 13.96C10.1 13.96 10.5 14.1267 10.82 14.46C11.14 14.78 11.3 15.1867 11.3 15.68C11.3 16.1733 11.14 16.5867 10.82 16.92C10.5 17.24 10.1 17.4 9.62 17.4Z" fill="white"/>
</svg>
