<svg width="67" height="68" viewBox="0 0 67 68" fill="none" xmlns="http://www.w3.org/2000/svg">
<path d="M66.091 29.4319L35.6753 1.77769L35.3874 1.51594C35.1911 1.33271 34.9686 1.18875 34.733 1.07096C34.7199 1.07096 34.7068 1.05787 34.7068 1.05787C33.9477 0.704505 33.0709 0.704505 32.3118 1.05787C32.2987 1.05787 32.2856 1.07096 32.2856 1.07096C32.05 1.18875 31.8406 1.33271 31.6312 1.51594L31.3433 1.77769L0.914466 29.4319C-0.224161 30.4658 -0.315775 32.2327 0.731239 33.3713C1.76516 34.5099 3.532 34.6015 4.67063 33.5545L5.58676 32.73V65.0042C5.58676 66.5485 6.84318 67.7919 8.37443 67.7919H22.339H44.6796H58.6311C60.1754 67.7919 61.4187 66.5354 61.4187 65.0042V32.73L62.3349 33.5545C63.4735 34.5885 65.2403 34.5099 66.2743 33.3713C67.3082 32.2327 67.2297 30.4658 66.091 29.4319ZM27.9143 62.2034V45.4512C27.9143 42.3625 30.4141 39.8628 33.5028 39.8628C36.5914 39.8628 39.0912 42.3625 39.0912 45.4512V62.2034H27.9143ZM55.8434 62.2034H44.6796V45.4512C44.6796 39.2869 39.6801 34.2874 33.5158 34.2874C27.3516 34.2874 22.3521 39.2869 22.3521 45.4512V62.2034H11.1621V27.652L33.5028 7.35304L55.8434 27.6651V62.2034Z" fill="black" fill-opacity="0.25"/>
</svg>
