<svg width="38" height="38" viewBox="0 0 38 38" fill="none" xmlns="http://www.w3.org/2000/svg">
<circle cx="19" cy="19" r="18.5" stroke="#0079D0"/>
<path d="M22.2335 11H15.7665C13.1382 11 11 13.1382 11 15.7665V22.2335C11 24.8618 13.1382 27 15.7665 27H22.2335C24.8618 27 27 24.8618 27 22.2335V15.7665C27 13.1382 24.8617 11 22.2335 11ZM25.3904 22.2335C25.3904 23.977 23.977 25.3904 22.2335 25.3904H15.7665C14.023 25.3904 12.6096 23.977 12.6096 22.2335V15.7665C12.6096 14.023 14.023 12.6096 15.7665 12.6096H22.2335C23.977 12.6096 25.3904 14.023 25.3904 15.7665V22.2335Z" fill="#0079D0"/>
<path d="M19.1382 15C16.8564 15 15 16.8564 15 19.1381C15 21.4199 16.8564 23.2763 19.1382 23.2763C21.42 23.2763 23.2763 21.4199 23.2763 19.1381C23.2763 16.8563 21.42 15 19.1382 15ZM19.1382 21.6667C17.7417 21.6667 16.6096 20.5347 16.6096 19.1382C16.6096 17.7417 17.7417 16.6096 19.1382 16.6096C20.5347 16.6096 21.6667 17.7417 21.6667 19.1382C21.6667 20.5346 20.5346 21.6667 19.1382 21.6667Z" fill="#0079D0"/>
<path d="M22.9916 15.9832C23.5392 15.9832 23.9832 15.5392 23.9832 14.9916C23.9832 14.444 23.5392 14 22.9916 14C22.444 14 22 14.444 22 14.9916C22 15.5392 22.444 15.9832 22.9916 15.9832Z" fill="#0079D0"/>
</svg>
