<svg width="148" height="107" viewBox="0 0 148 107" fill="none" xmlns="http://www.w3.org/2000/svg">
<path d="M0 9.99999C0 4.47715 4.47715 0 10 0H137.125C142.648 0 147.125 4.47715 147.125 10V82.4091C147.125 87.932 142.648 92.4091 137.125 92.4091H109.526L108.981 107L88.8199 92.4091H10C4.47716 92.4091 0 87.9319 0 82.4091V9.99999Z" fill="white"/>
<path fill-rule="evenodd" clip-rule="evenodd" d="M56.5932 17.8044C55.0512 19.5039 53.5092 19.7871 51.7102 22.6194C50.9392 23.7524 50.6822 24.6022 50.1682 26.0183C48.6262 31.3998 44.5142 26.3015 49.9112 20.9201C51.4532 19.5039 53.7662 18.0877 56.5932 17.8044ZM54.2802 12.4229C46.0563 14.1224 40.9162 22.3363 42.4582 30.5501C44.7712 43.2958 60.1911 48.3941 68.6721 37.0646C76.8961 26.8681 68.1581 9.30734 54.2802 12.4229Z" fill="#F47B2F"/>
<path fill-rule="evenodd" clip-rule="evenodd" d="M47.3409 47.8275C44.5139 49.8101 45.0279 49.8101 45.0279 56.6079C45.0279 60.29 45.7989 62.839 47.3409 65.3882C50.4249 69.92 56.5929 70.7697 63.2748 69.3535C62.5038 72.4691 58.1348 73.3189 55.0509 72.4691C52.7379 72.1859 52.4809 71.6194 51.1959 70.4865C49.9109 69.6368 47.8549 69.6368 46.8269 70.7697C42.7149 74.735 50.4249 80.9662 59.1628 79.8333C71.7558 78.4171 71.2418 65.6714 71.2418 55.7581C71.2418 50.9431 72.0128 48.394 67.6438 47.5442C63.0179 49.2437 64.8168 50.9431 64.5598 57.4576C64.0459 61.7061 61.7329 63.1223 57.6209 63.1223C46.0559 62.5559 57.1068 46.9778 47.3409 47.8275Z" fill="#1A6A9D"/>
<path fill-rule="evenodd" clip-rule="evenodd" d="M105.166 80.1166C106.708 79.2668 123.413 64.8218 124.955 64.2552C124.955 66.8044 124.441 76.1512 125.212 77.8507C126.24 79.8333 131.637 81.8159 131.637 74.735C131.637 65.6714 131.637 56.3246 131.637 47.2611C130.609 47.8275 118.273 59.1569 116.731 60.5731C115.189 61.9894 113.39 63.972 111.848 65.1049C111.591 60.5731 112.362 54.9084 111.848 50.6599C111.334 46.6945 105.166 46.4113 105.166 51.7928C104.909 61.1397 105.166 70.7697 105.166 80.1166Z" fill="#F47B2F"/>
<path fill-rule="evenodd" clip-rule="evenodd" d="M107.736 12.4229C105.166 13.5559 105.166 14.6888 105.166 18.0877V44.712C106.194 44.1455 106.708 43.5791 107.736 42.7293L122.385 29.1339C122.899 28.5674 124.184 27.4345 124.955 26.868C125.212 31.3998 124.441 36.7813 124.955 41.0299C125.212 45.5617 131.637 45.5617 131.637 40.1802V13.2726C131.637 12.1397 131.894 11.8564 131.38 12.1397C127.268 14.9721 121.1 20.3535 116.731 24.0356C115.189 25.1686 113.39 26.868 111.848 28.001C111.848 24.6022 111.848 21.2033 111.848 17.8044C111.848 14.1224 111.334 12.1397 107.736 12.4229Z" fill="#1A6A9D"/>
<path fill-rule="evenodd" clip-rule="evenodd" d="M82.036 19.7871H94.6289C94.6289 22.9026 94.3719 41.0299 94.8859 42.4461C95.9139 45.5616 100.54 45.2784 101.054 41.5963C101.568 40.1802 101.311 21.7697 101.311 18.6541C101.311 11.5732 102.596 12.4229 96.4279 12.4229C89.4889 12.4229 82.5499 12.4229 75.354 12.4229C75.097 14.6888 75.354 31.683 75.354 36.2148C75.354 38.4807 74.84 41.8795 76.382 43.2957C77.667 44.9951 80.4939 44.7119 81.5219 43.2957C82.293 41.5963 82.036 38.1974 82.036 35.9316C82.036 30.5501 82.036 25.1685 82.036 19.7871Z" fill="#1A6A9D"/>
<path fill-rule="evenodd" clip-rule="evenodd" d="M75.3538 47.8275C75.0968 52.6425 75.3538 59.1569 75.3538 63.972C75.3538 67.3709 74.5828 77.2842 76.3818 78.9836C78.1808 80.3998 80.7508 79.8333 81.5218 78.1339C82.5498 76.1512 81.5218 60.29 82.0358 54.9084H94.6287C94.8858 59.7235 94.6287 66.238 94.6287 71.0529C94.6287 73.3189 93.8578 77.0009 95.3997 78.7004C96.6847 80.1166 98.7407 80.3998 100.283 78.7004C101.568 77.2842 101.311 74.1686 101.311 71.6194C101.311 66.8044 101.568 50.3766 101.054 47.8275H75.3538Z" fill="#F47B2F"/>
<path fill-rule="evenodd" clip-rule="evenodd" d="M33.9769 60.0066C35.0049 58.0239 37.8319 54.9083 38.6028 52.9257C40.4019 49.81 36.8039 46.1279 33.9769 48.3939L26.7809 58.3072C26.2669 58.8737 25.7529 59.4401 25.4959 60.0066C25.2389 60.2899 25.2389 60.2899 24.9819 60.8563L24.2109 61.4228C24.2109 56.3245 25.2389 49.5269 22.412 48.1107C21.384 47.5442 19.8419 47.5441 18.8139 48.3939C16.758 49.81 17.5289 53.7754 17.5289 56.891V76.7176C18.043 80.6829 24.2109 81.5327 24.2109 75.3014C24.2109 71.6193 26.7809 71.0528 29.3509 66.2379L30.1219 67.3708C30.3789 67.654 30.6359 67.9372 30.8929 68.2205C31.4069 69.0702 31.6639 69.6367 32.1779 70.4864C33.2059 71.9026 33.9769 73.3188 34.7479 75.0182C35.5188 76.1511 36.8039 78.7003 37.5748 79.2667C39.8878 80.6829 45.2848 78.7003 41.6869 73.3188C40.4019 71.0528 34.4909 61.4228 33.9769 60.0066Z" fill="#F47B2F"/>
<path fill-rule="evenodd" clip-rule="evenodd" d="M29.3511 30.8332C30.6361 31.9662 36.0331 42.446 37.575 43.5789C39.6311 45.2783 45.285 43.5789 41.6871 37.9141L33.7201 24.602C35.0051 22.6193 37.0611 20.3534 38.603 18.0875C40.6591 14.6887 37.061 11.0066 34.2341 12.7061C33.2061 13.5558 30.122 18.0875 29.0941 19.5037L24.2111 26.3014C23.9541 23.4691 24.2111 19.2205 24.2111 16.3882C24.2111 13.2725 21.6411 11.2899 19.0711 12.7061C16.7581 14.1223 17.5291 17.8043 17.5291 20.92V41.0298C17.7861 45.5616 23.9541 45.8448 24.2111 40.4633C24.2111 37.631 23.9541 38.1974 25.2391 36.498C26.7811 34.5153 28.0661 32.8159 29.3511 30.8332Z" fill="#1A6A9D"/>
<path fill-rule="evenodd" clip-rule="evenodd" d="M56.5931 17.8043C53.766 18.0875 51.453 19.5037 49.9111 20.9199C44.5141 26.3014 48.626 31.3997 50.1681 26.0182C50.682 24.602 50.939 23.7523 51.71 22.6193C53.5091 19.787 55.051 19.5037 56.5931 17.8043Z" fill="white"/>
</svg>
