<svg width="26" height="35" viewBox="0 0 26 35" fill="none" xmlns="http://www.w3.org/2000/svg">
<path d="M6.49982 1H12.4998H19.4998L16.4998 6.5V9C16.8331 9 18.1998 9.8 20.9998 13C23.7998 16.2 24.8331 21 24.9998 23C25.3331 24.5 25.0998 28.3 21.4998 31.5C17.8998 34.7 11.9998 34.3424 9.49982 33.7635C5.42753 32.9713 1.26738 30.6188 0.999821 25C0.599821 16.6 6.49982 10.8333 9.49982 9V6.5L6.49982 1Z" stroke="#C4C4C4" stroke-width="1.5" stroke-linecap="round" stroke-linejoin="round"/>
<path d="M12.2269 22.7289V23.7823H14.3375C14.5644 23.7823 14.7573 23.856 14.9162 24.0032C15.0751 24.1392 15.1545 24.3261 15.1545 24.5639C15.1545 24.7905 15.0751 24.9774 14.9162 25.1246C14.7573 25.2606 14.5644 25.3285 14.3375 25.3285H12.2269V26.5179C12.2269 26.9483 12.102 27.2768 11.8524 27.5034C11.6141 27.7299 11.3077 27.8432 10.9332 27.8432C10.5701 27.8432 10.2694 27.7299 10.0311 27.5034C9.79281 27.2768 9.67366 26.9483 9.67366 26.5179V25.3285H8.89068C8.66373 25.3285 8.46515 25.2606 8.29494 25.1246C8.13607 24.9774 8.05664 24.7905 8.05664 24.5639C8.05664 24.3261 8.13607 24.1392 8.29494 24.0032C8.46515 23.856 8.66373 23.7823 8.89068 23.7823H9.67366V22.7289H8.89068C8.66373 22.7289 8.46515 22.6553 8.29494 22.508C8.13607 22.3608 8.05664 22.1739 8.05664 21.9473C8.05664 21.7208 8.13607 21.5339 8.29494 21.3866C8.46515 21.2393 8.66373 21.1657 8.89068 21.1657H9.67366V17.0029C9.67366 16.6065 9.77579 16.3006 9.98004 16.0854C10.1956 15.8702 10.502 15.7626 10.8992 15.7626H13.8269C14.6893 15.7626 15.4269 15.9098 16.0396 16.2043C16.6637 16.4989 17.1347 16.9066 17.4524 17.4277C17.7701 17.9374 17.929 18.5208 17.929 19.1778C17.929 20.3105 17.5715 21.1884 16.8566 21.8114C16.1531 22.4231 15.1432 22.7289 13.8269 22.7289H12.2269ZM12.1928 21.1657H13.1971C13.9687 21.1657 14.5474 21.0355 14.9332 20.7749C15.319 20.5031 15.512 20.084 15.512 19.5176C15.512 18.8719 15.3361 18.4075 14.9843 18.1243C14.6325 17.8411 14.0935 17.6996 13.3673 17.6996H12.1928V21.1657Z" fill="#C4C4C4"/>
<path d="M9.5 6.5H16.5" stroke="#C4C4C4" stroke-width="1.5"/>
<path d="M9.5 9H16.5" stroke="#C4C4C4" stroke-width="1.5"/>
</svg>
