<svg width="38" height="38" viewBox="0 0 38 38" fill="none" xmlns="http://www.w3.org/2000/svg">
<circle cx="19" cy="19" r="19" fill="#0079D0"/>
<path d="M19.9837 22.614C21.5329 22.4684 22.9298 22.1248 24.1257 21.2823C24.2741 21.1775 24.4273 21.0764 24.5628 20.9594C25.0862 20.5065 25.139 19.9879 24.7248 19.4535C24.3704 18.9962 23.7756 18.8738 23.1573 19.1364C23.0376 19.1873 22.9235 19.2508 22.8143 19.3191C20.5854 20.6985 17.5236 20.7365 15.2864 19.3811C15.0647 19.228 14.8278 19.1032 14.5532 19.0395C14.0193 18.916 13.5214 19.0927 13.2348 19.5134C12.9075 19.994 12.9117 20.463 13.315 20.8361C13.9337 21.408 14.6777 21.8218 15.5045 22.1106C16.2862 22.3836 17.1425 22.521 17.9899 22.6123C17.862 22.7376 17.8018 22.7993 17.7218 22.8717C16.5711 23.913 15.4153 24.9501 14.2684 25.9946C13.8776 26.3505 13.796 26.7919 14.0111 27.2058C14.2464 27.6583 14.773 27.956 15.2893 27.9241C15.6165 27.9037 15.8716 27.7571 16.0983 27.5514C16.9666 26.7643 17.8514 25.9918 18.7022 25.1899C18.9498 24.9567 19.0689 25.0008 19.2874 25.2032C20.161 26.0133 21.0488 26.8109 21.9419 27.604C22.3429 27.9601 22.8201 28.0242 23.2852 27.8208C23.7796 27.6049 24.0941 27.1504 24.0699 26.6936C24.0531 26.3847 23.8844 26.1486 23.649 25.9369C22.5102 24.9127 21.3745 23.8859 20.2384 22.86C20.1633 22.7917 20.0932 22.7193 19.9837 22.614Z" fill="white"/>
<path d="M18.9859 19.1108C21.7497 19.1023 24.016 17.0387 23.9999 14.5453C23.984 12.0245 21.7162 9.99304 18.9252 10C16.1286 10.0068 13.8838 12.0675 13.8979 14.6145C13.9121 17.1027 16.1941 19.1195 18.9859 19.1108ZM16.4741 14.5514C16.4789 13.3134 17.5736 12.3278 18.9453 12.3267C20.3286 12.3254 21.4331 13.3288 21.4224 14.5781C21.4121 15.8114 20.3081 16.79 18.9326 16.7855C17.5612 16.7811 16.4695 15.7892 16.4741 14.5514Z" fill="white"/>
</svg>
