<svg width="19" height="20" viewBox="0 0 19 20" fill="none" xmlns="http://www.w3.org/2000/svg">
<path d="M0.652154 19.0227H0.780697L6.98234 17.6731C7.10313 17.653 7.21507 17.597 7.30363 17.5124L17.811 7.00504C18.5786 6.23913 19.0068 5.19737 18.9999 4.11312C19.0013 3.02043 18.5745 1.97074 17.811 1.18903C17.0451 0.421458 16.0034 -0.00679497 14.9191 0.000154992C13.8279 -0.00950114 12.7812 0.432406 12.0271 1.22119L1.55184 11.7285C1.45946 11.8029 1.39211 11.9038 1.35902 12.0177L0.00949838 18.2194C-0.0273425 18.442 0.0442482 18.6688 0.202314 18.8299C0.320955 18.951 0.482649 19.0203 0.652154 19.0227ZM14.9191 1.28547C16.463 1.28534 17.7147 2.53689 17.7148 4.08083C17.7148 4.09159 17.7147 4.10235 17.7146 4.11312C17.7251 4.84864 17.4349 5.55662 16.9113 6.07319L12.959 2.08871C13.4797 1.57128 14.185 1.28221 14.9191 1.28547ZM12.0592 3.02062L16.0116 6.97293L6.85373 16.0986L2.90142 12.1784L12.0592 3.02062ZM2.38731 13.4638L5.56842 16.6449L1.48756 17.5446L2.38731 13.4638Z" fill="black" fill-opacity="0.6"/>
</svg>
