<svg width="76" height="75" viewBox="0 0 76 75" fill="none" xmlns="http://www.w3.org/2000/svg">
<path d="M33.9301 18.5445C33.5424 18.5445 33.234 18.4127 33.0049 18.1491C32.7935 17.8855 32.6877 17.534 32.6877 17.0947C32.6877 16.1984 32.8463 15.4515 33.1635 14.854C33.4983 14.2564 33.9829 13.5974 34.6173 12.8769C35.0931 12.3321 35.4367 11.8839 35.6482 11.5325C35.8773 11.1634 35.9918 10.7504 35.9918 10.2935C35.9918 9.80141 35.8068 9.41478 35.4367 9.13359C35.0843 8.83483 34.5997 8.68545 33.9829 8.68545C33.419 8.68545 32.8904 8.79968 32.397 9.02814C31.9212 9.25661 31.278 9.60809 30.4674 10.0826C29.9563 10.3638 29.5334 10.5044 29.1986 10.5044C28.8285 10.5044 28.5113 10.3462 28.247 10.0299C28.0003 9.69596 27.877 9.30054 27.877 8.84362C27.877 8.52728 27.9298 8.26367 28.0356 8.05278C28.1589 7.82432 28.3439 7.61343 28.5906 7.42011C29.366 6.80502 30.2559 6.33052 31.2604 5.99661C32.2824 5.64512 33.3045 5.46938 34.3266 5.46938C35.4191 5.46938 36.3971 5.6627 37.2606 6.04933C38.1417 6.43596 38.8201 6.97197 39.2959 7.65736C39.7893 8.32518 40.0361 9.08087 40.0361 9.92443C40.0361 10.5747 39.9039 11.1722 39.6396 11.717C39.3929 12.2442 39.0933 12.7099 38.7408 13.1141C38.3884 13.5008 37.9126 13.984 37.3135 14.564C36.6438 15.1791 36.1416 15.6975 35.8068 16.1193C35.472 16.5235 35.2605 16.9804 35.1724 17.4901C35.1019 17.824 34.9521 18.0876 34.7231 18.2809C34.5116 18.4567 34.2473 18.5445 33.9301 18.5445ZM33.9829 24.4494C33.3309 24.4494 32.7935 24.2386 32.3705 23.8168C31.9476 23.3774 31.7361 22.8326 31.7361 22.1824C31.7361 21.5321 31.9476 20.9961 32.3705 20.5743C32.7935 20.135 33.3309 19.9153 33.9829 19.9153C34.6173 19.9153 35.146 20.135 35.5689 20.5743C35.9918 20.9961 36.2033 21.5321 36.2033 22.1824C36.2033 22.8326 35.9918 23.3774 35.5689 23.8168C35.146 24.2386 34.6173 24.4494 33.9829 24.4494Z" fill="#0079D0"/>
<path d="M62.6496 39.3685C62.0394 39.3685 61.5448 39.8632 61.5448 40.4733C61.5448 41.2469 60.9155 41.8762 60.1419 41.8762C59.3684 41.8762 58.739 41.2469 58.739 40.4733C58.739 39.863 58.2443 39.3685 57.6341 39.3685C57.024 39.3685 56.5293 39.8632 56.5293 40.4733C56.5293 42.4653 58.15 44.0859 60.1419 44.0859C62.1338 44.0859 63.7545 42.4652 63.7545 40.4733C63.7545 39.8629 63.2598 39.3685 62.6496 39.3685Z" fill="#0079D0"/>
<path d="M73.0204 39.549L69.9107 38.5528C69.5124 38.4251 69.1985 38.1072 69.0711 37.7023C68.4157 35.6185 67.4267 33.6622 66.1314 31.8875C65.5411 31.0787 64.8847 30.3063 64.1676 29.5709C64.6264 27.5583 64.8758 25.2805 64.8434 23.3127C64.7972 20.4976 64.2346 18.8465 63.1237 18.2646C62.5254 17.9508 60.7045 16.9977 50.8486 21.5093C50.6152 21.6161 50.3972 21.7476 50.1954 21.8982C49.531 21.7197 48.8519 21.5545 48.1686 21.4062C48.0863 21.3883 48.0015 21.3724 47.9186 21.3549C48.7172 19.6103 49.1836 17.7154 49.2712 15.7592C49.2985 15.1495 48.8265 14.6332 48.2168 14.606C47.6087 14.5758 47.0907 15.0506 47.0636 15.6603C46.9196 18.8767 45.5854 21.903 43.3069 24.1816C41.9455 25.543 40.3515 26.5319 38.6526 27.1547C35.7064 26.7413 32.7055 26.7413 29.7592 27.1547C28.0602 26.5319 26.4664 25.543 25.105 24.1816C22.6741 21.7507 21.3352 18.5186 21.3352 15.0807C21.3352 11.6426 22.6741 8.41069 25.105 5.97976C27.5359 3.54868 30.7682 2.20984 34.2059 2.20984C37.6437 2.20984 40.8759 3.54868 43.3069 5.97976C44.2837 6.95664 45.091 8.07142 45.7062 9.29282C45.9807 9.8379 46.6451 10.0574 47.1901 9.78274C47.7351 9.50842 47.9545 8.84397 47.68 8.29903C46.9589 6.86678 46.0133 5.56086 44.8696 4.41702C42.0213 1.56867 38.2341 0 34.2061 0C30.178 0 26.3909 1.56867 23.5425 4.41702C20.6942 7.26551 19.1255 11.0525 19.1255 15.0805C19.1255 19.1086 20.6942 22.8957 23.5425 25.7441C24.3642 26.5657 25.258 27.2723 26.2035 27.8642C26.2038 27.8642 26.204 27.8641 26.2043 27.8641C25.5174 28.0426 24.8356 28.2431 24.1613 28.4685C23.5826 28.662 23.2703 29.2879 23.4638 29.8668C23.6572 30.4455 24.2834 30.7578 24.8619 30.5644C30.8875 28.55 37.5246 28.55 43.5502 30.5644C43.6664 30.6033 43.7845 30.6217 43.9006 30.6217C44.3628 30.6217 44.7937 30.3292 44.9483 29.8668C45.1418 29.288 44.8296 28.662 44.2508 28.4685C43.5766 28.2431 42.8948 28.0424 42.2078 27.8641C42.2081 27.8641 42.2084 27.8642 42.2087 27.8642C43.1543 27.2723 44.048 26.5657 44.8696 25.7441C45.5965 25.0172 46.2381 24.2234 46.7952 23.3799C47.0998 23.439 47.4021 23.501 47.7 23.5657C48.0968 23.6518 48.4918 23.7443 48.8833 23.8415C48.871 23.8895 48.8584 23.9374 48.8481 23.9862C48.3093 26.5433 48.3443 28.8049 48.9521 30.7078C49.4984 32.4182 50.4843 33.8039 51.8821 34.8266C53.5297 36.0319 55.5187 36.5525 57.3205 36.5525C58.6766 36.5525 59.9267 36.2574 60.8449 35.7374C61.8834 35.1491 62.7536 33.9097 63.4423 32.0487C63.7607 32.4203 64.0624 32.8009 64.3468 33.1906C65.5 34.7704 66.3804 36.5116 66.9634 38.3654C67.3058 39.4542 68.1558 40.311 69.2369 40.6575L72.3466 41.6537C73.1626 41.9151 73.7108 42.6661 73.7108 43.5229V48.6794C73.7108 49.5362 73.1626 50.2872 72.3466 50.5486L67.3364 52.1535C66.5347 52.4105 65.8564 52.9613 65.4262 53.7048C63.4578 57.1067 60.363 59.9218 56.2272 62.0721C55.7495 62.3207 55.4185 62.7654 55.3189 63.2924L53.7142 71.7894C53.6698 72.0235 53.4647 72.1933 53.2265 72.1933H48.0089C47.7706 72.1933 47.5655 72.0234 47.5212 71.7894L46.6324 67.0935C46.4574 66.1695 45.5908 65.5558 44.6581 65.6971C42.4106 66.037 40.0948 66.2091 37.7752 66.2091C36.0495 66.2091 34.3459 66.1129 32.7114 65.9229C31.8076 65.819 30.9657 66.4351 30.7968 67.3275L29.9522 71.7894C29.9078 72.0235 29.7028 72.1933 29.4645 72.1933H24.2469C24.0086 72.1933 23.8035 72.0234 23.7586 71.7858L22.2135 63.7605C22.114 63.2435 21.7893 62.8038 21.322 62.5543C14.2721 58.7907 10.5458 52.503 10.5458 44.3712C10.5458 40.2626 11.4447 36.6296 13.2174 33.5726C14.8716 30.7198 17.2877 28.3611 20.3985 26.5617C20.9267 26.2561 21.1072 25.5802 20.8017 25.0519C20.4962 24.5237 19.8204 24.3436 19.292 24.6487C13.2601 28.1381 9.622 33.5213 8.62036 40.3586V40.3584C8.51404 40.3488 8.40757 40.3396 8.30155 40.3286C8.32083 39.5909 8.18738 38.8465 7.89674 38.1241C7.25572 36.5307 5.93898 35.3806 4.54202 35.1942C3.44117 35.0468 2.39356 35.5142 1.66654 36.4748C0.612403 37.8677 0.784262 38.9701 1.11389 39.6495C1.67039 40.7962 3.10087 41.6073 5.47471 42.1172C5.40947 42.2149 5.3377 42.3131 5.25911 42.4117C3.85651 44.1707 2.20406 44.5597 1.13109 44.5963C0.502972 44.6175 0 45.1218 0 45.7504V45.7557C0 46.3757 0.489181 46.8813 1.10855 46.9097C1.18788 46.9134 1.27077 46.9153 1.35707 46.9153C2.71474 46.9153 4.89374 46.4146 6.98718 43.7895C7.3177 43.3752 7.58698 42.9381 7.79398 42.4864C8.00247 42.51 8.2028 42.5302 8.39467 42.548C8.39467 42.5475 8.39467 42.5472 8.39482 42.5468C8.35716 43.1455 8.33625 43.753 8.33625 44.3712C8.33625 48.9721 9.43309 53.0743 11.5961 56.5644C13.5905 59.7821 16.4459 62.4168 20.0859 64.3982L21.588 72.2001C21.8296 73.4766 22.9478 74.403 24.2469 74.403H29.4645C30.7636 74.403 31.8818 73.4766 32.1233 72.2001L32.887 68.1657C34.473 68.3337 36.115 68.4188 37.7751 68.4188C40.0527 68.4188 42.3276 68.2601 44.5447 67.947L45.3497 72.2004C45.5914 73.4769 46.7096 74.4032 48.0086 74.4032H53.2262C54.5253 74.4032 55.6435 73.4767 55.8852 72.1998L57.4476 63.9271C61.8616 61.593 65.1888 58.5268 67.3386 54.8114C67.4935 54.5436 67.7321 54.3472 68.0103 54.2581L73.0204 52.6532C74.7549 52.0973 75.9202 50.5005 75.9202 48.6791V43.5226C75.9202 41.7014 74.7549 40.1046 73.0204 39.549ZM62.4678 26.4176C62.0426 30.0543 60.9018 33.1653 59.7556 33.8145C58.4528 34.5525 55.4449 34.695 53.1866 33.0429C50.9256 31.389 50.173 28.4148 51.0101 24.4417C51.0101 24.4416 51.0101 24.4416 51.0101 24.4416C51.0942 24.0425 51.3777 23.6973 51.7684 23.5185C57.2999 20.9865 60.489 20.1583 61.6738 20.1583C61.8526 20.1583 61.9858 20.1771 62.0744 20.2118C62.4303 20.5911 62.8971 22.7473 62.4678 26.4176ZM3.1022 38.6846C2.98788 38.4489 3.25775 38.0344 3.42887 37.8081C3.70007 37.4499 3.94993 37.3766 4.13869 37.3766C4.17858 37.3766 4.2158 37.3799 4.2499 37.3845C4.75792 37.4523 5.46967 38.0113 5.84675 38.9486C5.93557 39.1692 6.05093 39.5347 6.07792 39.9905C4.54839 39.6737 3.36006 39.2168 3.1022 38.6846Z" fill="#0079D0"/>
</svg>
