<svg width="38" height="38" viewBox="0 0 38 38" fill="none" xmlns="http://www.w3.org/2000/svg">
<circle cx="19" cy="19" r="18.5" fill="#0079D0" stroke="#0079D0"/>
<path d="M28.8939 23.9342C28.8697 23.8839 28.8471 23.8422 28.8262 23.8087C28.4792 23.2063 27.8161 22.4668 26.8372 21.5901L26.8166 21.57L26.8062 21.5602L26.7957 21.5501H26.7852C26.341 21.1419 26.0597 20.8674 25.9419 20.7268C25.7263 20.4591 25.678 20.1882 25.7959 19.9136C25.8791 19.7062 26.1917 19.2681 26.733 18.5988C27.0178 18.244 27.2433 17.9598 27.4098 17.7456C28.6109 16.2063 29.1316 15.2227 28.9719 14.7943L28.9098 14.6942C28.8681 14.634 28.7606 14.5788 28.5872 14.5286C28.4134 14.4784 28.1914 14.4701 27.9206 14.5035L24.9216 14.5235C24.8731 14.5069 24.8037 14.5085 24.7133 14.5286C24.623 14.5487 24.5779 14.5588 24.5779 14.5588L24.5257 14.5839L24.4843 14.6141C24.4495 14.6341 24.4114 14.6692 24.3697 14.7194C24.3282 14.7694 24.2935 14.8282 24.2658 14.8951C23.9393 15.7048 23.5681 16.4577 23.1515 17.1536C22.8946 17.5686 22.6587 17.9282 22.4432 18.2328C22.2281 18.5372 22.0476 18.7615 21.9019 18.9052C21.756 19.0491 21.6244 19.1644 21.5061 19.2515C21.388 19.3386 21.2979 19.3754 21.2355 19.362C21.173 19.3485 21.1141 19.3351 21.0583 19.3218C20.9612 19.2615 20.883 19.1796 20.8241 19.0758C20.765 18.9721 20.7252 18.8416 20.7043 18.6843C20.6836 18.5269 20.6714 18.3916 20.6679 18.2778C20.6646 18.1641 20.6661 18.0033 20.6732 17.7959C20.6804 17.5883 20.6836 17.4479 20.6836 17.3743C20.6836 17.1199 20.6888 16.8439 20.6991 16.5461C20.7096 16.2483 20.7181 16.0124 20.7252 15.8385C20.7323 15.6645 20.7356 15.4804 20.7356 15.2864C20.7356 15.0923 20.7233 14.9401 20.6991 14.8296C20.6752 14.7193 20.6384 14.6122 20.59 14.5084C20.5413 14.4046 20.4701 14.3244 20.3766 14.2674C20.2829 14.2106 20.1664 14.1654 20.0277 14.1319C19.6598 14.0516 19.1912 14.0082 18.6218 14.0014C17.3307 13.9881 16.501 14.0684 16.1331 14.2424C15.9873 14.316 15.8554 14.4164 15.7374 14.5435C15.6125 14.6908 15.595 14.7711 15.6853 14.7844C16.1018 14.8445 16.3968 14.9884 16.5703 15.2159L16.6329 15.3365C16.6815 15.4235 16.7301 15.5775 16.7787 15.7983C16.8273 16.0191 16.8586 16.2633 16.8724 16.5309C16.907 17.0195 16.907 17.4377 16.8724 17.7857C16.8376 18.1338 16.8048 18.4047 16.7735 18.5988C16.7422 18.7929 16.6953 18.9502 16.6329 19.0706C16.5703 19.191 16.5287 19.2646 16.5079 19.2914C16.487 19.3181 16.4697 19.3349 16.4559 19.3415C16.3656 19.3749 16.2718 19.3919 16.1747 19.3919C16.0774 19.3919 15.9595 19.345 15.8206 19.2512C15.6819 19.1575 15.5378 19.0287 15.3885 18.8647C15.2393 18.7007 15.0709 18.4715 14.8834 18.1771C14.696 17.8827 14.5016 17.5347 14.3003 17.1332L14.1338 16.842C14.0296 16.6547 13.8874 16.3819 13.7069 16.024C13.5263 15.6659 13.3666 15.3195 13.2278 14.9849C13.1724 14.8443 13.089 14.7373 12.978 14.6637L12.9259 14.6335C12.8912 14.6068 12.8356 14.5784 12.7593 14.5482C12.6829 14.518 12.6031 14.4963 12.5198 14.483L9.66657 14.503C9.37501 14.503 9.17718 14.5666 9.07302 14.6938L9.03133 14.754C9.0105 14.7875 9 14.841 9 14.9147C9 14.9883 9.02083 15.0786 9.06251 15.1856C9.47903 16.1293 9.93198 17.0394 10.4214 17.916C10.9108 18.7927 11.336 19.4989 11.6969 20.0339C12.0579 20.5694 12.4258 21.0747 12.8007 21.5497C13.1756 22.0249 13.4238 22.3294 13.5452 22.4632C13.6668 22.5972 13.7622 22.6974 13.8317 22.7643L14.092 23.0052C14.2586 23.1658 14.5033 23.3582 14.8261 23.5824C15.149 23.8066 15.5065 24.0274 15.8987 24.2451C16.291 24.4624 16.7474 24.6398 17.2681 24.7769C17.7887 24.9142 18.2955 24.9693 18.7884 24.9427H19.9859C20.2288 24.9225 20.4128 24.8489 20.5379 24.7218L20.5793 24.6715C20.6072 24.6316 20.6333 24.5695 20.6573 24.486C20.6817 24.4024 20.6938 24.3102 20.6938 24.21C20.6867 23.9223 20.7094 23.663 20.7613 23.4321C20.8132 23.2013 20.8724 23.0273 20.9386 22.9102C21.0047 22.7931 21.0793 22.6943 21.1624 22.6142C21.2456 22.5339 21.3049 22.4853 21.3397 22.4686C21.3743 22.4517 21.4019 22.4403 21.4227 22.4334C21.5893 22.3799 21.7854 22.4318 22.0112 22.5892C22.2369 22.7464 22.4485 22.9406 22.6465 23.1714C22.8444 23.4024 23.0821 23.6615 23.3597 23.9493C23.6375 24.2371 23.8804 24.451 24.0886 24.5918L24.2968 24.7122C24.4358 24.7926 24.6163 24.8662 24.8385 24.9331C25.0603 25 25.2546 25.0167 25.4215 24.9833L28.0872 24.9432C28.3508 24.9432 28.556 24.9011 28.7015 24.8176C28.8473 24.734 28.9339 24.6418 28.9619 24.5416C28.9897 24.4412 28.9912 24.3274 28.9672 24.2001C28.9425 24.0732 28.9181 23.9844 28.8939 23.9342Z" fill="white"/>
</svg>
