<svg width="73" height="54" viewBox="0 0 73 54" fill="none" xmlns="http://www.w3.org/2000/svg">
<path d="M53.7225 46.5934L53.397 54L43.4045 46.5509L3.91391 46.763L3.9104 46.7669H3.89524C2.82667 46.7669 1.85457 46.3128 1.148 45.5833C0.446616 44.859 0.00912191 43.8578 0.00372689 42.757L0 42.7531V4.02955C0 2.9205 0.439588 1.91291 1.148 1.18291C1.85624 0.453134 2.83395 0 3.9104 0H68.2827C69.3546 0 70.3312 0.452899 71.0413 1.18291L71.045 1.18705C71.7537 1.91866 72.1931 2.92531 72.1931 4.02955V42.7371L72.1891 42.741V42.7794C72.1771 43.8713 71.741 44.8668 71.0448 45.5869C70.3426 46.314 69.3778 46.7671 68.3155 46.7671L68.3117 46.7632C63.4502 46.7276 58.5843 46.6501 53.7225 46.5934ZM51.647 50.2592L51.8955 44.6029C57.3684 44.6663 62.8426 44.7424 68.3155 44.7941V44.7902C68.8502 44.7902 69.3357 44.5625 69.6886 44.1971C70.0474 43.8256 70.2723 43.3171 70.2781 42.7641L70.2785 42.7371H70.2746V4.02955C70.2746 3.46372 70.0516 2.95089 69.6925 2.58076L69.6888 2.57685C69.3296 2.20672 68.832 1.97718 68.2827 1.97718H3.9104C3.36355 1.97718 2.86568 2.20809 2.50432 2.58076C2.14292 2.9532 1.91825 3.46622 1.91825 4.02955V42.7531H1.91452C1.91825 43.3105 2.14356 43.8208 2.50432 44.1935C2.8605 44.5611 3.35254 44.79 3.89524 44.79H3.9104V44.7938L44.0269 44.5785L51.647 50.2592Z" fill="white"/>
<path fill-rule="evenodd" clip-rule="evenodd" d="M26.9731 8.50293C26.2024 9.35229 25.4318 9.49385 24.5327 10.9094C24.1474 11.4756 24.0189 11.9003 23.762 12.6081C22.9914 15.2976 20.9363 12.7496 23.6336 10.0601C24.4042 9.35229 25.5602 8.6445 26.9731 8.50293ZM25.8171 5.81338C21.707 6.66274 19.1381 10.7679 19.9087 14.873C21.0647 21.243 28.7713 23.791 33.0099 18.1288C37.1201 13.0328 32.753 4.25628 25.8171 5.81338Z" fill="white"/>
<path fill-rule="evenodd" clip-rule="evenodd" d="M22.3492 23.5078C20.9363 24.4987 21.1932 24.4987 21.1932 27.8961C21.1932 29.7363 21.5785 31.0103 22.3492 32.2843C23.8905 34.5492 26.9731 34.9739 30.3126 34.2661C29.9273 35.8232 27.7438 36.2479 26.2025 35.8232C25.0465 35.6816 24.9181 35.3985 24.2758 34.8323C23.6336 34.4076 22.6061 34.4076 22.0923 34.9739C20.0372 36.9556 23.8905 40.0699 28.2575 39.5036C34.5513 38.7959 34.2944 32.4259 34.2944 27.4714C34.2944 25.0649 34.6797 23.791 32.4961 23.3663C30.1842 24.2156 31.0833 25.0649 30.9548 28.3207C30.698 30.4441 29.542 31.1518 27.4869 31.1518C21.707 30.8688 27.23 23.0832 22.3492 23.5078Z" fill="white"/>
<path fill-rule="evenodd" clip-rule="evenodd" d="M51.2487 39.6452C52.0194 39.2205 60.3682 32.0012 61.1388 31.7181C61.1388 32.9921 60.8819 37.6634 61.2673 38.5128C61.781 39.5037 64.4783 40.4945 64.4783 36.9556C64.4783 32.4259 64.4783 27.7545 64.4783 23.2247C63.9646 23.5078 57.7993 29.17 57.0286 29.8778C56.258 30.5856 55.3589 31.5765 54.5882 32.1427C54.4598 29.8778 54.8451 27.0467 54.5882 24.9234C54.3314 22.9416 51.2487 22.8 51.2487 25.4896C51.1203 30.161 51.2487 34.9739 51.2487 39.6452Z" fill="white"/>
<path fill-rule="evenodd" clip-rule="evenodd" d="M52.5331 5.81337C51.2487 6.37959 51.2487 6.94581 51.2487 8.64448V21.9508C51.7624 21.6676 52.0193 21.3845 52.5331 20.9598L59.8543 14.1652C60.1112 13.882 60.7534 13.3158 61.1388 13.0327C61.2672 15.2976 60.8819 17.9872 61.1388 20.1105C61.2672 22.3754 64.4783 22.3754 64.4783 19.6859V6.23803C64.4783 5.6718 64.6067 5.53024 64.3498 5.6718C62.2947 7.08738 59.2121 9.77693 57.0286 11.6172C56.2579 12.1834 55.3588 13.0327 54.5882 13.599C54.5882 11.9003 54.5882 10.2016 54.5882 8.50292C54.5882 6.66272 54.3313 5.6718 52.5331 5.81337Z" fill="white"/>
<path fill-rule="evenodd" clip-rule="evenodd" d="M39.689 9.49381H45.9827C45.9827 11.0509 45.8542 20.1105 46.1111 20.8183C46.6249 22.3754 48.9369 22.2338 49.1937 20.3936C49.4506 19.6859 49.3222 10.4847 49.3222 8.92759C49.3222 5.38869 49.9644 5.81335 46.8817 5.81335C43.4138 5.81335 39.9458 5.81335 36.3494 5.81335C36.221 6.94579 36.3494 15.4392 36.3494 17.7041C36.3494 18.8365 36.0926 20.5352 36.8632 21.243C37.5054 22.0923 38.9183 21.9507 39.4321 21.243C39.8174 20.3936 39.689 18.6949 39.689 17.5625C39.689 14.8729 39.689 12.1834 39.689 9.49381Z" fill="white"/>
<path fill-rule="evenodd" clip-rule="evenodd" d="M36.3494 23.5078C36.221 25.9143 36.3494 29.1701 36.3494 31.5765C36.3494 33.2752 35.9641 38.2297 36.8632 39.079C37.7623 39.7868 39.0467 39.5037 39.432 38.6543C39.9458 37.6634 39.432 29.7363 39.6889 27.0467H45.9826C46.1111 29.4532 45.9826 32.709 45.9826 35.1154C45.9826 36.2479 45.5973 38.0881 46.3679 38.9374C47.0102 39.6452 48.0377 39.7868 48.8084 38.9374C49.4506 38.2297 49.3221 36.6726 49.3221 35.3985C49.3221 32.9921 49.4506 24.7818 49.1937 23.5078H36.3494Z" fill="white"/>
<path fill-rule="evenodd" clip-rule="evenodd" d="M15.6701 29.5947C16.1839 28.6038 17.5968 27.0467 17.9821 26.0558C18.8812 24.4987 17.083 22.6584 15.6701 23.7909L12.0738 28.7454C11.8169 29.0285 11.56 29.3116 11.4315 29.5947C11.3031 29.7363 11.3031 29.7363 11.1746 30.0194L10.7893 30.3025C10.7893 27.7545 11.3031 24.3572 9.89023 23.6494C9.37646 23.3662 8.60579 23.3662 8.09202 23.7909C7.06448 24.4987 7.4498 26.4805 7.4498 28.0376V37.9465C7.7067 39.9283 10.7893 40.353 10.7893 37.2387C10.7893 35.3985 12.0738 35.1154 13.3582 32.709L13.7435 33.2752C13.8719 33.4167 14.0004 33.5583 14.1288 33.6998C14.3857 34.1245 14.5142 34.4076 14.771 34.8323C15.2848 35.5401 15.6701 36.2479 16.0555 37.0972C16.4408 37.6634 17.083 38.9374 17.4683 39.2205C18.6243 39.9283 21.3216 38.9374 19.5234 36.2479C18.8812 35.1154 15.927 30.3025 15.6701 29.5947Z" fill="white"/>
<path fill-rule="evenodd" clip-rule="evenodd" d="M13.3582 15.0144C14.0004 15.5807 16.6977 20.8183 17.4683 21.3845C18.4959 22.2338 21.3216 21.3845 19.5235 18.5533L15.5417 11.9002C16.1839 10.9093 17.2115 9.77688 17.9821 8.64443C19.0097 6.94576 17.2115 5.10553 15.7986 5.95488C15.2849 6.37954 13.7435 8.64443 13.2297 9.35222L10.7893 12.7496C10.6609 11.334 10.7893 9.21065 10.7893 7.79512C10.7893 6.23798 9.50491 5.2471 8.2205 5.95488C7.06451 6.66267 7.44983 8.50287 7.44983 10.06V20.1105C7.57828 22.3754 10.6609 22.5169 10.7893 19.8274C10.7893 18.4118 10.6609 18.6949 11.3031 17.8456C12.0738 16.8547 12.716 16.0054 13.3582 15.0144Z" fill="white"/>
</svg>
