<svg width="38" height="38" viewBox="0 0 38 38" fill="none" xmlns="http://www.w3.org/2000/svg">
<circle cx="19" cy="19" r="18.5" stroke="#0079D0"/>
<path d="M29.1101 14.1906C28.8734 13.3341 28.1799 12.6589 27.3005 12.4282C25.6937 12 19.2664 12 19.2664 12C19.2664 12 12.8393 12 11.2325 12.4119C10.37 12.6424 9.65952 13.3342 9.42281 14.1906C9 15.7552 9 19 9 19C9 19 9 22.261 9.42281 23.8093C9.65968 24.6657 10.353 25.341 11.2327 25.5717C12.8562 25.9999 19.2666 25.9999 19.2666 25.9999C19.2666 25.9999 25.6937 25.9999 27.3005 25.588C28.1801 25.3575 28.8734 24.6822 29.1103 23.8258C29.5331 22.261 29.5331 19.0164 29.5331 19.0164C29.5331 19.0164 29.55 15.7552 29.1101 14.1906Z" fill="#0079D0"/>
<path d="M17.3999 22.2667L22.0665 19L17.3999 15.7334V22.2667Z" fill="white"/>
</svg>
