<svg xmlns="http://www.w3.org/2000/svg" viewBox="0 0 122 84" height="84px" width="122px" ><defs><style>.cls-1,.cls-3{fill:#006393;}.cls-2,.cls-6{fill:#fff;}.cls-3,.cls-4,.cls-6{fill-rule:evenodd;}.cls-4,.cls-5{fill:#e7732c;}</style></defs><title>Ресурс 11</title><g id="Слой_2" data-name="Слой 2"><g id="Слой_1-2" data-name="Слой 1"><path class="cls-1" d="M89.56,70.4,89,82.13,72.35,70.34l-65.82.34h0A6.52,6.52,0,0,1,1.92,68.8,6.27,6.27,0,0,1,0,64.32H0V6.39A6.28,6.28,0,0,1,1.92,1.87,6.53,6.53,0,0,1,6.52,0H113.83a6.54,6.54,0,0,1,4.6,1.87h0a6.29,6.29,0,0,1,1.92,4.51v57.9h0v.06a6.45,6.45,0,0,1-6.46,6.32h0c-8.1-.07-16.21-.19-24.31-.28Z"/><path class="cls-2" d="M86.1,76.21l.41-9c9.13.1,18.25.22,27.38.31v0a3.29,3.29,0,0,0,2.28-.93,3.21,3.21,0,0,0,1-2.27v0h0V6.39a3.24,3.24,0,0,0-1-2.3h0a3.28,3.28,0,0,0-2.34-1H6.52a3.34,3.34,0,0,0-2.35,1,3.21,3.21,0,0,0-1,2.3V64.32h0a3.2,3.2,0,0,0,1,2.28,3.32,3.32,0,0,0,2.32.94h0v0l66.87-.34Z"/><path class="cls-3" d="M22.34,22.58c-1.44,1.89-2.95,3.74-4.45,5.58v2.06a2.46,2.46,0,0,1-.85,2,2.89,2.89,0,0,1-1.9.69,2.71,2.71,0,0,1-1.88-.66,2.49,2.49,0,0,1-.88-2V11.46a2.57,2.57,0,0,1,.87-2,2.74,2.74,0,0,1,1.89-.67,2.79,2.79,0,0,1,1.9.7,2.5,2.5,0,0,1,.85,2v8.06l7.55-9.67a2.64,2.64,0,0,1,2.11-1.07,2.9,2.9,0,0,1,2,.8,2.57,2.57,0,0,1,.85,1.9,2.63,2.63,0,0,1-.61,1.63l-3.88,5,7.17,10.68a2.8,2.8,0,0,1,.49,1.51,2.51,2.51,0,0,1-.9,1.92,2.94,2.94,0,0,1-2,.75,2.69,2.69,0,0,1-2.26-1.23Z"/><path class="cls-3" d="M90.9,20.63,107.4,8.31V30.14a2.5,2.5,0,0,1-.85,2,3,3,0,0,1-1.91.67,2.88,2.88,0,0,1-1.93-.67,2.52,2.52,0,0,1-.83-2V19.61L85.39,33.34V11.45a2.49,2.49,0,0,1,.84-2,3,3,0,0,1,3.84,0,2.58,2.58,0,0,1,.83,2Z"/><path class="cls-3" d="M76.6,20.56h0V18.4a1.34,1.34,0,0,0,0-.19l0-.47h0V14.22H66.12V20.5h0v9.82a2.53,2.53,0,0,1-.84,2,2.93,2.93,0,0,1-1.92.7,2.87,2.87,0,0,1-1.94-.71,2.54,2.54,0,0,1-.82-2V18.74c0-.19,0-.38,0-.57l0-.43h0V14.22h0V8.89H82.08v.56h0V20.56h0v9.76a2.49,2.49,0,0,1-.84,2,3,3,0,0,1-3.85,0,2.54,2.54,0,0,1-.82-2Z"/><path class="cls-4" d="M22.34,49.29c-1.44,1.88-2.95,3.73-4.45,5.57v2.06a2.49,2.49,0,0,1-.85,2,2.89,2.89,0,0,1-1.9.69A2.72,2.72,0,0,1,13.26,59a2.49,2.49,0,0,1-.88-2V38.16a2.57,2.57,0,0,1,.87-2,2.73,2.73,0,0,1,1.89-.66,2.79,2.79,0,0,1,1.9.7,2.47,2.47,0,0,1,.85,2v8.06l7.55-9.67a2.63,2.63,0,0,1,2.11-1.06,2.86,2.86,0,0,1,2,.8,2.55,2.55,0,0,1,.85,1.89,2.63,2.63,0,0,1-.61,1.63l-3.88,5,7.17,10.68A2.82,2.82,0,0,1,33.56,57a2.49,2.49,0,0,1-.9,1.92,3,3,0,0,1-2,.76,2.68,2.68,0,0,1-2.26-1.24Z"/><path class="cls-4" d="M101.88,47.72,85.39,60V38.2a2.51,2.51,0,0,1,.84-2,3,3,0,0,1,3.83,0,2.48,2.48,0,0,1,.84,2V48.75L107.4,35V56.9a2.49,2.49,0,0,1-.84,2,3,3,0,0,1-3.86,0,2.51,2.51,0,0,1-.82-2Z"/><path class="cls-4" d="M82.08,36.15h0V47.26h0V57a2.47,2.47,0,0,1-.84,2,3,3,0,0,1-3.85,0,2.51,2.51,0,0,1-.82-2V47.26h0V45.1a1.09,1.09,0,0,0,0-.18l0-.47h0V40.92H66.12v3.53h0l0,.47v2.29h0V57a2.5,2.5,0,0,1-.84,2,2.93,2.93,0,0,1-1.92.7A2.87,2.87,0,0,1,61.41,59a2.51,2.51,0,0,1-.82-2V45.44c0-.18,0-.38,0-.57l0-.42h0V40.92h0V35.6H82.08Z"/><path class="cls-5" d="M35.11,26.87a11.63,11.63,0,0,1-1.19-2.08,11.81,11.81,0,0,1-.72-2.23,10.21,10.21,0,0,1,0-4.49,12.12,12.12,0,0,1,1.91-4.34A12,12,0,0,1,37.84,11a12.77,12.77,0,0,1,3.53-1.79,12.42,12.42,0,0,1,3.92-.63,13.13,13.13,0,0,1,3,.35,12.75,12.75,0,0,1,5.28,2.69,11.43,11.43,0,0,1,1.94,2.16,11.24,11.24,0,0,1,2.15,6.58,10.72,10.72,0,0,1-.55,3.41,11.85,11.85,0,0,1-1.6,3.15,12.06,12.06,0,0,1-2,2.19,12.74,12.74,0,0,1-2.42,1.64,12.88,12.88,0,0,1-2.78,1,12.5,12.5,0,0,1-3,.38,12.7,12.7,0,0,1-3.92-.62,12.27,12.27,0,0,1-3.53-1.8,11.93,11.93,0,0,1-2.73-2.81Z"/><path class="cls-6" d="M37.13,19.19c.9-3.64,4-5.82,8-6.34-2.91,2-4.73,3.11-5.78,6.92a1.14,1.14,0,0,1-1.4.79,1.23,1.23,0,0,1-.8-1.37Z"/><path class="cls-3" d="M57,43.8c-.06,3.53.22,8.25-1.84,11.3A11.17,11.17,0,0,1,54,56.47a10.41,10.41,0,0,1-4.2,2.65v0l-.31.1c-.33.09-.65.18-1,.25-.51.11-1,.2-1.58.27l-.5.05v0l-.93,0a12.57,12.57,0,0,1-8.69-3A2.59,2.59,0,0,1,36.78,53a2.66,2.66,0,0,1,3.77-.07,7.29,7.29,0,0,0,5,1.53,7.16,7.16,0,0,0,3.16-.67,4.68,4.68,0,0,0,2.14-2.05,13.81,13.81,0,0,1-3.88.68H45.27a10.94,10.94,0,0,1-7-2.6,9.47,9.47,0,0,1-2.92-7.36V38.16a2.5,2.5,0,0,1,.82-2,2.82,2.82,0,0,1,1.94-.71,2.79,2.79,0,0,1,1.9.7,2.45,2.45,0,0,1,.86,2v4.28c0,3.29,1.88,4.58,5.1,4.61h.78c3.08-.13,4.74-1.51,4.74-4.6V38.16a2.5,2.5,0,0,1,.82-2,3,3,0,0,1,3.85,0,2.46,2.46,0,0,1,.84,2v4.28c0,.45,0,.91-.06,1.36Z"/></g></g></svg>